<?xml version="1.0" standalone="no"?>
<!DOCTYPE svg PUBLIC "-//W3C//DTD SVG 20010904//EN"
 "http://www.w3.org/TR/2001/REC-SVG-20010904/DTD/svg10.dtd">
<svg version="1.0" xmlns="http://www.w3.org/2000/svg"
 width="900.000000pt" height="900.000000pt" viewBox="0 0 900.000000 900.000000"
 preserveAspectRatio="xMidYMid meet">
<metadata>
Created by potrace 1.10, written by Peter Selinger 2001-2011
</metadata>
<g transform="translate(0.000000,900.000000) scale(0.100000,-0.100000)"
fill="currentColor" stroke="none">
<path d="M2170 7985 c-14 -8 -31 -14 -38 -15 -36 -1 -192 -147 -192 -179 0 -7
-7 -26 -16 -43 -14 -27 -16 -130 -14 -971 0 -768 3 -946 14 -971 8 -17 17 -38
20 -46 24 -54 123 -160 150 -160 7 0 19 -7 26 -15 7 -8 20 -15 30 -15 10 0 31
-7 46 -15 25 -13 120 -15 664 -15 562 0 641 2 685 16 57 19 123 51 145 72 66
59 110 109 110 123 0 9 7 22 15 29 8 7 15 20 15 29 0 9 7 34 15 56 12 34 14
178 15 906 0 937 2 905 -53 1019 -24 49 -119 150 -142 150 -8 0 -15 4 -15 9 0
5 -21 17 -47 27 -45 17 -95 19 -728 21 -576 2 -684 0 -705 -12z m1367 -186
c61 -29 110 -90 123 -153 13 -61 9 -1724 -5 -1771 -16 -55 -77 -114 -143 -137
-45 -16 -104 -18 -655 -18 -343 0 -608 4 -611 9 -3 5 -17 12 -31 15 -33 8 -72
42 -101 88 l-24 38 0 907 1 908 27 39 c15 22 47 52 72 67 l45 27 629 1 c619 1
630 1 673 -20z"/>
<path d="M6320 7135 c-24 -13 -25 -19 -30 -121 -4 -97 -7 -110 -26 -119 -30
-15 -54 -42 -75 -83 -17 -33 -19 -63 -19 -319 0 -268 -1 -283 -19 -293 -30
-16 -197 -18 -213 -2 -10 10 -14 86 -18 325 -4 277 -7 316 -23 340 l-17 27
-253 0 c-212 0 -256 -2 -275 -16 -22 -15 -22 -16 -22 -340 l0 -325 -32 -13
c-21 -8 -81 -14 -158 -15 -121 -1 -126 -2 -147 -27 -32 -36 -32 -112 0 -142
l23 -22 981 0 c879 0 983 2 997 16 12 11 16 35 16 84 0 67 -1 70 -30 85 -21
11 -62 15 -152 15 -68 0 -130 5 -138 10 -13 8 -16 56 -20 302 -6 324 -7 334
-70 376 -45 30 -50 46 -48 145 1 76 0 82 -26 104 -23 20 -38 23 -104 23 -46
-1 -87 -6 -102 -15z"/>
<path d="M3065 5241 c-100 -20 -208 -123 -230 -221 -4 -19 -11 -153 -14 -298
-5 -218 -9 -264 -21 -272 -22 -14 -133 -12 -153 3 -12 9 -18 36 -23 107 -9
138 -11 140 -137 140 -114 0 -127 -6 -127 -55 0 -41 25 -63 75 -67 l40 -3 3
-56 c3 -51 1 -56 -23 -67 -19 -9 -137 -12 -416 -12 -250 0 -397 -4 -410 -10
-16 -9 -19 -22 -19 -88 1 -48 6 -86 15 -102 8 -14 14 -35 15 -46 0 -12 7 -27
15 -34 8 -7 15 -18 15 -25 0 -20 66 -114 114 -161 42 -42 140 -114 156 -114 5
0 21 -6 37 -14 15 -8 53 -22 83 -33 52 -17 105 -18 930 -18 827 0 878 1 930
19 110 37 203 90 273 156 73 68 147 169 147 199 0 10 7 24 15 31 8 7 15 24 15
39 0 14 7 48 15 75 20 65 19 82 -5 106 -19 19 -33 20 -480 20 -327 0 -466 3
-485 12 -21 9 -25 18 -25 53 0 54 16 73 65 77 35 3 40 6 45 33 4 17 3 41 0 55
-6 24 -8 25 -109 28 -67 2 -108 -1 -117 -9 -10 -8 -14 -37 -14 -104 0 -78 -3
-96 -21 -119 -20 -25 -24 -26 -129 -26 -148 0 -140 -15 -140 260 0 243 10 305
58 353 34 33 90 49 148 41 74 -10 144 -99 144 -182 0 -50 14 -62 75 -62 28 0
56 5 63 12 18 18 16 140 -3 164 -8 10 -15 26 -15 34 -2 31 -69 106 -126 142
-50 31 -70 37 -134 41 -41 3 -93 2 -115 -2z"/>
<path d="M1426 3658 c-12 -17 -16 -50 -16 -139 0 -105 2 -118 21 -135 21 -19
61 -19 1571 -19 l1550 0 19 24 c16 20 19 40 19 131 0 60 -4 120 -10 134 l-10
26 -1564 0 -1565 0 -15 -22z"/>
<path d="M1512 3230 l-22 -21 0 -883 0 -883 23 -21 c15 -14 36 -22 60 -22 20
0 39 -6 44 -12 4 -7 10 -102 13 -211 6 -233 3 -227 112 -227 95 0 98 7 98 235
0 102 4 184 10 196 10 18 27 19 529 19 489 0 519 1 534 18 16 17 17 95 17 910
l0 891 -22 15 c-20 14 -103 16 -698 16 -667 0 -677 0 -698 -20z m1207 -782
c38 -39 42 -93 11 -143 -31 -51 -109 -56 -170 -12 -22 15 -25 25 -25 76 0 49
4 64 24 85 20 22 34 26 77 26 45 0 56 -4 83 -32z"/>
<path d="M3073 3233 l-23 -15 0 -893 c0 -851 1 -893 18 -908 17 -15 69 -17
538 -17 309 0 525 -4 534 -10 12 -8 16 -44 18 -207 4 -237 2 -233 102 -233 56
0 70 3 88 23 20 22 22 34 24 222 l3 200 42 3 c78 6 73 -61 73 929 l0 882 -22
21 c-21 20 -31 20 -697 19 -597 0 -679 -2 -698 -16z m339 -780 c24 -23 28 -34
28 -82 0 -77 -26 -102 -106 -102 -51 0 -60 3 -80 28 -35 42 -33 117 3 155 22
23 35 28 77 28 41 0 55 -5 78 -27z"/>
</g>
</svg>
