<?xml version="1.0" standalone="no"?>
<!DOCTYPE svg PUBLIC "-//W3C//DTD SVG 20010904//EN"
 "http://www.w3.org/TR/2001/REC-SVG-20010904/DTD/svg10.dtd">
<svg version="1.0" xmlns="http://www.w3.org/2000/svg"
 width="900.000000pt" height="900.000000pt" viewBox="0 0 900.000000 900.000000"
 preserveAspectRatio="xMidYMid meet">
<metadata>
Created by potrace 1.10, written by Peter Selinger 2001-2011
</metadata>
<g transform="translate(0.000000,900.000000) scale(0.100000,-0.100000)"
fill="currentColor" stroke="none">
<path d="M2216 8375 c-3 -9 -6 -253 -6 -542 0 -478 -2 -528 -17 -554 -10 -16
-20 -29 -24 -29 -4 0 -17 -15 -28 -34 -19 -31 -21 -48 -21 -223 0 -217 7 -200
-100 -253 -36 -17 -72 -38 -81 -46 -8 -8 -20 -14 -26 -14 -34 0 -243 -232
-243 -270 0 -5 -6 -21 -14 -37 -19 -39 -46 -153 -46 -198 0 -21 9 -48 22 -65
l22 -30 627 0 c573 0 628 1 640 17 20 24 16 216 -5 248 -9 14 -16 31 -16 39 0
29 -74 140 -134 202 -59 59 -152 127 -206 149 -8 4 -27 13 -42 21 -14 8 -32
14 -38 14 -7 0 -23 10 -36 23 -23 22 -24 25 -24 211 l0 190 -42 50 -43 51 -5
545 -5 545 -51 3 c-40 2 -53 -1 -58 -13z"/>
<path d="M6558 6769 l-28 -21 0 -150 0 -151 -45 -48 -45 -48 0 -311 0 -310
-26 -10 c-14 -6 -63 -10 -109 -10 -46 0 -95 4 -109 10 l-26 10 0 223 c0 160
-3 226 -12 235 -9 9 -69 12 -208 12 -178 0 -198 -2 -213 -18 -15 -16 -17 -48
-17 -240 l0 -221 -34 -6 c-19 -4 -43 -2 -54 4 -19 10 -20 24 -26 238 -3 126
-7 239 -7 253 -1 14 0 58 2 99 2 63 0 76 -16 87 -15 11 -70 14 -250 14 -229 0
-232 0 -253 -23 -26 -28 -31 -112 -7 -143 19 -25 19 -58 0 -74 -12 -10 -15
-48 -15 -226 l0 -214 -26 -10 c-14 -6 -83 -10 -153 -10 -127 0 -189 -12 -206
-41 -12 -18 -8 -129 5 -144 11 -13 176 -15 1285 -15 l1273 0 22 36 c31 48 22
99 -22 137 l-32 27 -196 0 c-141 0 -201 4 -213 13 -15 11 -17 44 -20 325 l-3
314 -47 43 -47 42 0 155 c0 154 0 156 -25 172 -32 21 -64 20 -97 -5z"/>
<path d="M6295 5168 c-22 -5 -54 -12 -72 -15 -18 -3 -38 -11 -44 -19 -6 -8
-17 -14 -23 -14 -30 -1 -136 -123 -136 -158 0 -11 -7 -36 -15 -55 -8 -20 -15
-63 -15 -95 0 -78 24 -112 80 -112 55 0 70 20 70 89 0 110 63 203 146 216 111
16 191 -28 225 -125 17 -49 19 -84 19 -347 0 -254 -2 -297 -16 -318 l-16 -25
-1028 0 -1028 0 -47 53 c-25 28 -60 62 -78 75 l-31 22 -1324 0 -1323 0 -52
-40 c-29 -21 -65 -55 -80 -75 -21 -26 -35 -35 -58 -35 -16 0 -48 -9 -69 -20
l-40 -20 0 -90 0 -90 32 -20 c33 -20 59 -20 2804 -20 l2771 0 26 26 c49 49 49
155 1 205 -27 28 -29 28 -158 31 l-131 3 -5 355 c-6 386 -8 400 -68 480 -31
42 -83 89 -98 90 -6 0 -17 7 -24 15 -7 8 -22 15 -34 15 -11 0 -39 7 -61 15
-45 16 -46 16 -100 3z"/>
<path d="M7878 4164 c-23 -7 -58 -87 -58 -134 0 -21 -7 -54 -15 -73 -8 -20
-15 -57 -15 -82 0 -25 -7 -62 -15 -82 -8 -19 -15 -56 -15 -82 -1 -25 -7 -57
-15 -71 -8 -14 -14 -47 -15 -73 0 -26 -7 -64 -15 -84 -8 -19 -15 -55 -15 -78
0 -23 -7 -59 -15 -78 -8 -20 -15 -54 -15 -75 0 -22 -7 -59 -15 -82 -8 -23 -15
-63 -15 -89 -1 -25 -7 -57 -15 -71 -8 -14 -14 -47 -15 -73 0 -27 -5 -58 -11
-69 -7 -12 -15 -47 -19 -77 -9 -72 -32 -154 -45 -163 -5 -4 -308 -8 -673 -8
-760 0 -722 4 -722 -79 0 -38 -5 -52 -25 -71 -24 -23 -25 -23 -45 -5 -17 16
-20 31 -20 115 0 143 -28 133 409 136 197 1 357 6 363 12 5 5 7 58 6 118 l-3
109 -1017 3 c-914 2 -1018 1 -1032 -14 -14 -13 -16 -60 -16 -369 l0 -354 22
-15 c20 -14 104 -16 706 -16 452 0 690 -4 703 -10 23 -13 25 -39 5 -66 -14
-18 -36 -19 -723 -24 l-708 -5 -3 -368 -2 -367 26 -10 c15 -6 262 -10 637 -10
538 0 615 -2 635 -16 26 -18 28 -45 7 -104 -8 -23 -15 -62 -15 -85 0 -23 -7
-62 -15 -85 -23 -66 -20 -105 12 -125 15 -10 46 -20 70 -23 38 -4 46 -1 78 31
30 30 35 42 35 80 0 24 7 64 15 87 8 23 15 62 15 85 0 23 7 59 15 78 8 20 15
56 15 80 0 25 7 61 15 80 8 20 15 56 15 80 0 25 7 64 15 87 8 23 15 66 16 94
0 31 9 68 22 96 l22 45 570 0 570 0 22 -45 c12 -25 22 -65 23 -90 0 -25 7 -63
15 -85 8 -22 15 -59 15 -81 0 -23 7 -58 15 -77 8 -20 15 -57 15 -82 0 -25 7
-62 15 -82 8 -19 15 -53 15 -75 0 -21 7 -55 15 -75 8 -19 15 -55 15 -79 0 -49
25 -110 55 -136 28 -25 96 -23 129 3 23 18 26 27 26 85 0 36 -7 81 -15 101 -8
19 -15 52 -15 73 0 21 -7 57 -15 80 -8 23 -15 59 -15 80 0 21 -7 57 -15 80 -8
23 -15 62 -15 87 0 24 -7 60 -15 80 -8 19 -15 58 -15 85 0 27 -7 65 -15 85 -8
19 -15 55 -15 80 0 24 -7 60 -15 80 -8 19 -15 55 -15 78 0 23 -7 62 -15 85 -8
23 -15 62 -15 85 0 23 -7 62 -15 85 -16 45 -21 180 -7 180 5 0 25 16 45 37 29
29 37 44 37 73 0 21 7 54 15 73 8 20 15 55 15 77 0 22 7 57 15 77 8 19 15 55
15 78 0 23 7 59 15 78 8 20 15 54 15 75 0 22 7 56 15 75 8 20 15 56 15 80 0
25 7 61 15 80 8 20 15 54 15 75 0 22 7 59 15 82 8 23 15 61 15 84 1 22 7 52
15 66 8 14 14 44 15 66 0 23 7 61 15 84 8 23 15 59 15 80 0 21 7 57 15 80 8
23 15 57 15 75 0 18 7 52 15 75 20 56 20 144 0 160 -16 13 -136 23 -167 14z
m-1973 -1586 c21 -9 25 -18 25 -53 0 -54 -4 -55 -177 -55 -161 0 -183 6 -183
54 0 55 29 65 182 66 76 0 137 -5 153 -12z m1562 -328 c16 -48 34 -151 36
-210 l2 -35 -539 0 c-613 0 -572 -6 -547 82 8 26 17 75 20 108 4 33 13 70 21
83 l15 22 489 -2 489 -3 14 -45z m-1616 -512 c23 -29 24 -56 2 -80 -14 -15
-32 -18 -131 -18 -127 0 -152 10 -152 58 0 53 22 62 147 62 107 0 116 -2 134
-22z"/>
<path d="M1507 3812 c-16 -17 -17 -118 -17 -1240 l0 -1222 40 -16 c58 -23 80
-59 80 -131 1 -32 7 -85 15 -118 8 -33 15 -73 15 -90 0 -35 41 -75 77 -75 64
0 93 49 103 175 12 141 30 212 58 224 15 7 200 11 552 11 380 0 536 3 555 12
l25 11 0 1216 c0 1085 -2 1219 -16 1239 l-15 22 -728 0 c-692 0 -729 -1 -744
-18z m1326 -1009 c55 -54 47 -116 -20 -152 -66 -35 -152 15 -153 88 0 26 8 41
36 67 49 47 88 46 137 -3z"/>
<path d="M3126 3814 c-14 -14 -16 -140 -16 -1240 l0 -1224 26 -10 c32 -13
1473 -13 1493 -1 12 8 14 198 13 1241 -1 677 -4 1236 -7 1241 -4 5 -299 9
-750 9 -663 0 -745 -2 -759 -16z m289 -992 c61 -51 53 -138 -16 -173 -45 -23
-65 -19 -109 18 -26 22 -30 31 -30 78 0 49 3 55 33 74 39 25 95 27 122 3z"/>
<path d="M4776 3814 c-14 -13 -16 -61 -16 -378 0 -294 3 -366 14 -375 10 -8
287 -10 1032 -9 l1019 3 0 385 0 385 -1017 3 c-914 2 -1018 1 -1032 -14z
m1192 -370 c18 -5 22 -13 22 -48 0 -41 -1 -42 -47 -58 -69 -24 -306 -19 -346
6 -33 22 -38 78 -9 95 18 11 341 15 380 5z"/>
</g>
</svg>
