<?xml version="1.0" standalone="no"?>
<!DOCTYPE svg PUBLIC "-//W3C//DTD SVG 20010904//EN"
 "http://www.w3.org/TR/2001/REC-SVG-20010904/DTD/svg10.dtd">
<svg version="1.0" xmlns="http://www.w3.org/2000/svg"
 width="900.000000pt" height="900.000000pt" viewBox="0 0 900.000000 900.000000"
 preserveAspectRatio="xMidYMid meet">
<metadata>
Created by potrace 1.10, written by Peter Selinger 2001-2011
</metadata>
<g transform="translate(0.000000,900.000000) scale(0.100000,-0.100000)"
fill="currentColor" stroke="none">
<path d="M4472 8541 c-11 -7 -15 -105 -18 -512 -2 -277 -6 -567 -8 -644 -3
-77 -5 -157 -5 -177 -1 -44 -29 -78 -64 -78 -12 0 -38 -13 -57 -29 l-35 -29
-6 -123 c-4 -68 -12 -135 -18 -149 -12 -24 -72 -60 -100 -60 -7 0 -25 -6 -39
-14 -15 -7 -45 -22 -67 -32 -91 -43 -203 -124 -273 -199 -39 -42 -72 -81 -72
-86 0 -5 -13 -28 -30 -51 -16 -22 -30 -47 -30 -53 0 -7 -7 -18 -15 -25 -8 -7
-15 -21 -15 -30 0 -10 -6 -31 -14 -47 -23 -46 -37 -94 -47 -158 -5 -33 -13
-84 -19 -114 -10 -58 -3 -83 27 -97 10 -4 418 -9 907 -12 956 -4 960 -4 972
45 4 13 1 53 -5 91 -7 37 -16 90 -20 117 -8 49 -20 88 -46 150 -64 155 -156
282 -264 364 -42 32 -83 61 -91 64 -8 4 -33 18 -55 32 -22 13 -47 24 -56 25
-9 0 -22 7 -29 15 -7 8 -22 15 -35 15 -12 0 -42 10 -66 23 l-44 24 -6 124 c-4
79 -11 133 -20 149 -26 47 -53 70 -80 70 -14 0 -38 9 -53 21 l-26 20 0 670 c0
656 0 669 -20 689 -22 22 -37 25 -58 11z"/>
<path d="M7410 5610 c-8 -5 -24 -10 -35 -10 -21 0 -79 -56 -103 -97 -16 -29
-41 -98 -52 -143 -22 -89 -33 -128 -46 -170 -8 -25 -14 -55 -14 -66 0 -12 -7
-38 -15 -57 -8 -20 -15 -52 -15 -70 0 -19 -7 -51 -15 -70 -8 -20 -15 -54 -15
-75 0 -22 -7 -59 -15 -82 -8 -23 -15 -63 -15 -89 0 -25 -7 -68 -15 -95 -8 -27
-15 -73 -15 -102 0 -29 -7 -79 -15 -111 -8 -31 -15 -87 -15 -123 0 -36 -5 -94
-11 -130 -10 -62 -24 -327 -38 -685 l-6 -169 -40 -8 c-22 -5 -360 -7 -751 -6
-549 2 -714 6 -726 15 -11 10 -17 44 -21 125 -4 62 -11 129 -17 148 -5 19 -10
78 -10 130 -1 52 -7 124 -15 160 -20 93 -20 226 1 234 9 3 92 6 185 6 l169 0
17 27 c15 23 18 50 18 164 0 124 -2 140 -21 166 l-21 28 -2288 3 -2289 2 -23
-22 c-22 -21 -23 -28 -23 -173 0 -205 -11 -195 217 -195 219 0 222 -2 188
-145 -8 -33 -15 -98 -15 -145 0 -47 -7 -130 -15 -185 -8 -55 -15 -141 -15
-192 0 -50 -5 -104 -10 -119 -6 -15 -15 -95 -21 -178 -5 -83 -14 -171 -19
-196 -5 -25 -9 -89 -10 -142 0 -53 -5 -109 -11 -125 -5 -15 -14 -93 -19 -173
-5 -80 -14 -165 -19 -190 -6 -25 -10 -81 -11 -125 0 -44 -7 -120 -15 -170 -8
-49 -15 -122 -15 -162 0 -39 -5 -84 -10 -99 -6 -15 -15 -97 -20 -181 -5 -85
-12 -159 -16 -164 -3 -6 -10 -68 -14 -137 -5 -70 -13 -150 -18 -178 -6 -28
-12 -108 -14 -177 -3 -121 -2 -126 21 -151 22 -24 32 -26 100 -26 57 1 81 5
96 18 31 26 55 85 55 134 0 23 7 65 15 92 8 27 15 70 15 95 0 25 7 71 15 101
8 30 15 74 15 97 0 23 7 68 15 100 8 31 15 78 15 103 0 25 7 67 15 94 8 27 15
74 15 103 0 30 5 63 10 73 6 11 13 54 16 97 4 43 13 103 20 133 8 30 14 71 14
92 0 20 7 63 15 95 8 31 15 82 15 113 0 30 7 77 15 104 8 27 15 70 15 95 0 25
7 71 15 101 8 30 15 74 15 97 0 23 7 68 15 100 8 31 15 81 15 111 0 29 5 62
10 73 6 11 15 64 19 119 5 54 13 104 17 111 4 7 11 45 15 83 4 39 13 100 19
136 22 139 32 208 41 280 4 41 14 98 22 125 l14 50 514 5 c283 3 955 3 1494 0
l980 -5 17 -80 c9 -44 17 -111 17 -149 1 -38 8 -107 16 -152 9 -45 15 -113 13
-151 -3 -59 -6 -68 -23 -71 -11 -2 -28 -11 -39 -21 -36 -31 -46 -75 -46 -203
0 -105 3 -128 20 -155 20 -34 37 -41 105 -45 l40 -3 3 -59 c2 -32 -2 -89 -9
-125 -6 -36 -15 -118 -19 -181 -5 -63 -13 -137 -19 -165 -5 -27 -10 -84 -11
-125 0 -41 -7 -106 -15 -145 -8 -38 -15 -97 -15 -131 0 -33 -7 -105 -15 -160
-8 -54 -15 -129 -15 -166 0 -37 -5 -79 -10 -94 -6 -15 -15 -91 -21 -168 -5
-78 -14 -166 -19 -196 -5 -30 -9 -90 -9 -134 -1 -43 -6 -96 -12 -117 -9 -29
-9 -45 1 -69 20 -48 48 -61 120 -58 59 3 65 5 92 39 25 31 31 50 38 115 9 87
24 202 41 309 6 39 15 102 19 140 15 134 32 205 52 216 10 5 23 7 29 3 20 -12
39 -73 39 -127 0 -29 7 -79 15 -110 8 -32 15 -84 15 -115 1 -31 7 -84 15 -117
8 -33 15 -85 15 -115 0 -30 5 -73 11 -95 6 -22 13 -53 16 -70 3 -16 15 -40 26
-53 18 -20 30 -22 107 -22 82 0 87 1 115 30 28 29 28 29 21 126 -4 53 -12 107
-17 121 -5 13 -9 61 -9 106 0 45 -7 127 -15 182 -8 55 -15 134 -15 175 -1 41
-5 95 -10 120 -6 25 -14 111 -20 192 -5 81 -14 175 -20 210 -6 35 -10 90 -8
123 l3 60 755 3 c415 1 765 0 778 -3 18 -4 22 -12 22 -44 0 -21 6 -61 14 -87
16 -56 33 -133 47 -219 5 -32 14 -64 19 -69 6 -6 10 -27 10 -48 0 -21 7 -55
15 -75 8 -19 15 -49 15 -65 0 -16 7 -45 15 -65 8 -19 15 -51 15 -70 0 -18 7
-50 15 -70 8 -19 15 -49 15 -65 0 -16 7 -45 15 -65 8 -19 15 -52 15 -72 1 -20
7 -47 15 -61 8 -14 14 -42 15 -63 0 -21 7 -54 15 -74 8 -19 15 -50 15 -67 0
-17 7 -44 15 -60 8 -15 15 -34 15 -41 0 -7 15 -24 34 -39 48 -36 121 -37 155
0 21 22 23 31 17 85 -3 33 -10 68 -16 79 -5 10 -10 40 -10 67 0 26 -7 73 -15
103 -8 30 -15 78 -15 106 0 28 -7 73 -15 100 -8 27 -15 72 -15 99 0 28 -5 66
-11 85 -6 19 -15 71 -19 115 -7 75 -13 123 -41 290 -6 39 -15 108 -20 155 -4
47 -13 103 -18 125 -6 22 -11 61 -11 86 0 25 -7 68 -15 95 -8 27 -15 72 -15
99 -1 28 -7 77 -15 110 -8 33 -15 83 -15 110 0 28 -7 77 -15 110 -22 91 -19
129 13 178 l27 42 6 445 c7 439 18 678 41 815 6 39 14 104 18 145 4 41 13 93
19 115 6 22 11 58 11 80 0 22 7 58 15 80 8 22 14 59 15 83 0 24 5 53 11 64 7
12 15 47 20 77 12 81 28 160 45 211 8 25 14 57 14 71 0 15 7 43 15 62 8 20 15
49 15 65 0 16 7 46 15 65 8 21 15 67 15 105 0 65 -2 71 -34 102 -47 46 -158
75 -196 50z m-412 -2822 c7 -7 12 -33 12 -58 0 -25 6 -70 14 -100 8 -30 16
-95 18 -145 l3 -90 -749 -3 c-660 -2 -751 0 -766 13 -12 11 -19 40 -23 104 -4
49 -11 101 -17 115 -14 38 -13 149 2 164 17 17 1489 17 1506 0z"/>
</g>
</svg>
