<?xml version="1.0" standalone="no"?>
<!DOCTYPE svg PUBLIC "-//W3C//DTD SVG 20010904//EN"
 "http://www.w3.org/TR/2001/REC-SVG-20010904/DTD/svg10.dtd">
<svg version="1.0" xmlns="http://www.w3.org/2000/svg"
 width="900.000000pt" height="900.000000pt" viewBox="0 0 900.000000 900.000000"
 preserveAspectRatio="xMidYMid meet">
<metadata>
Created by potrace 1.10, written by Peter Selinger 2001-2011
</metadata>
<g transform="translate(0.000000,900.000000) scale(0.100000,-0.100000)"
fill="currentColor" stroke="none">
<path d="M6930 5696 c-35 -24 -52 -52 -85 -136 -9 -25 -23 -60 -31 -78 -8 -18
-14 -40 -14 -50 0 -9 -7 -26 -15 -36 -8 -11 -15 -29 -15 -41 0 -12 -5 -26 -11
-32 -6 -6 -15 -29 -19 -50 -9 -42 -27 -98 -43 -128 -6 -11 -14 -33 -18 -50 -8
-34 -26 -86 -46 -132 -7 -17 -13 -53 -13 -80 0 -39 5 -54 23 -71 23 -21 30
-22 275 -22 238 0 252 -1 262 -19 11 -21 15 -537 4 -565 -5 -13 -24 -16 -103
-16 -75 0 -102 -4 -123 -18 -38 -25 -66 -64 -70 -97 l-3 -30 -235 -5 c-319 -7
-310 0 -310 -234 0 -148 10 -186 55 -220 18 -14 37 -26 40 -26 4 0 20 -9 36
-21 26 -18 29 -26 29 -78 0 -56 -11 -81 -37 -81 -8 0 -58 45 -111 99 -125 128
-171 159 -374 251 l-48 22 0 731 c0 647 -2 738 -16 782 -22 68 -44 114 -73
153 -27 36 -133 122 -151 122 -6 0 -23 8 -37 18 -26 16 -130 17 -1843 17
-1677 0 -1817 -1 -1845 -17 -16 -9 -37 -19 -45 -23 -50 -20 -160 -124 -160
-151 0 -6 -7 -17 -15 -24 -8 -7 -15 -20 -15 -30 0 -10 -7 -31 -15 -46 -13 -25
-15 -134 -15 -782 0 -708 -1 -753 -17 -758 -10 -3 -31 -12 -46 -20 -16 -7 -37
-14 -47 -14 -9 0 -23 -7 -30 -15 -7 -8 -21 -15 -31 -15 -10 0 -21 -5 -24 -11
-4 -5 -17 -14 -28 -20 -80 -34 -200 -136 -271 -229 -48 -63 -106 -172 -106
-198 0 -10 -6 -24 -12 -30 -7 -7 -16 -45 -20 -85 -19 -197 -16 -188 -69 -235
l-49 -44 0 -317 c0 -316 0 -318 22 -339 34 -31 72 -42 142 -42 35 0 67 -5 74
-12 9 -9 12 -73 12 -227 0 -230 6 -270 49 -315 43 -46 186 -47 238 -2 42 36
54 88 64 276 9 177 19 254 36 271 5 5 888 8 2238 7 l2229 -3 8 -30 c5 -16 12
-120 16 -230 7 -168 11 -206 28 -239 25 -52 59 -75 119 -82 74 -9 127 9 161
54 l29 37 0 238 c0 200 2 239 15 247 8 5 46 10 85 10 39 0 88 7 111 16 35 13
46 24 63 64 20 45 20 62 16 324 -5 276 -7 292 -43 337 -11 14 -10 27 2 77 9
33 16 79 16 103 0 24 7 66 15 93 8 27 15 69 15 92 0 33 5 46 19 54 31 16 1076
14 1089 -2 17 -23 32 -116 32 -211 1 -51 7 -121 15 -157 8 -36 14 -105 15
-155 0 -49 7 -130 15 -180 8 -49 15 -131 15 -180 0 -50 5 -106 10 -125 6 -19
15 -100 20 -180 5 -80 14 -161 20 -180 5 -19 10 -57 10 -84 0 -37 6 -57 26
-83 49 -65 101 -61 138 10 16 30 17 112 14 1107 -3 1186 1 1108 -65 1151 -25
17 -50 19 -246 19 -198 0 -218 2 -223 18 -15 46 -45 99 -66 112 -15 10 -59 17
-128 20 l-105 5 0 295 0 295 275 3 c265 2 275 3 297 24 27 25 32 93 8 124 -8
10 -15 28 -15 39 0 11 -6 29 -14 40 -7 11 -16 31 -19 45 -8 37 -27 91 -71 193
-9 21 -16 45 -16 55 0 9 -7 26 -15 36 -8 11 -15 29 -15 40 0 12 -7 30 -15 40
-8 11 -15 29 -15 41 0 12 -7 30 -15 41 -8 10 -15 27 -15 36 0 10 -14 45 -31
78 -53 99 -56 100 -392 100 -281 0 -282 0 -317 -24z m-2655 -847 c295 -9 426
-19 515 -41 25 -6 63 -14 85 -18 137 -27 343 -156 433 -271 50 -65 112 -182
112 -214 1 -11 7 -31 15 -45 8 -14 15 -52 15 -85 1 -33 5 -80 10 -105 13 -70
13 -70 -199 -59 -101 5 -188 12 -194 16 -20 12 -640 27 -1132 27 -479 0 -1065
-16 -1235 -33 -47 -5 -139 -10 -205 -10 -115 -1 -222 -12 -256 -26 -10 -3 -24
1 -34 11 -14 15 -16 28 -11 73 4 31 10 85 13 121 3 36 12 74 19 85 8 11 14 29
14 40 0 23 39 104 82 170 34 52 114 133 169 170 24 17 46 32 49 35 12 13 141
70 158 70 10 0 27 7 38 15 10 8 36 15 57 15 21 0 48 5 59 11 12 6 70 15 131
20 61 5 126 13 146 19 20 5 119 11 221 11 102 1 259 5 350 8 91 4 190 5 220 3
30 -2 190 -7 355 -13z m351 -1078 c138 0 276 -6 305 -11 30 -6 126 -15 214
-20 88 -5 178 -14 200 -19 22 -6 67 -11 100 -11 33 0 82 -7 109 -15 27 -8 67
-15 88 -15 22 0 48 -5 59 -11 11 -6 41 -14 67 -19 52 -9 102 -25 145 -46 16
-8 34 -14 41 -14 13 0 80 -32 99 -48 7 -5 19 -11 28 -13 29 -7 159 -121 215
-190 11 -14 29 -41 40 -60 10 -19 24 -41 30 -49 6 -8 14 -26 17 -40 3 -14 10
-38 15 -55 21 -60 35 -191 23 -214 l-12 -21 -2599 0 -2599 0 -11 21 c-22 39
-2 181 38 284 41 103 179 261 262 298 8 4 29 16 45 27 17 11 37 22 45 26 8 3
29 11 45 18 59 25 100 39 135 44 19 2 44 11 55 18 11 8 36 14 56 14 20 0 56 7
79 15 23 8 64 15 90 15 26 0 69 7 96 15 27 8 78 15 114 15 36 0 83 5 105 11
22 5 128 14 235 19 107 5 219 14 249 20 29 5 176 11 325 11 149 1 400 5 557 8
157 3 367 3 465 0 99 -4 292 -7 430 -8z"/>
</g>
</svg>
