<?xml version="1.0" encoding="UTF-8"?>
<!-- Generator: visioncortex VTracer 0.6.4 -->
<svg version="1.0" xmlns="http://www.w3.org/2000/svg"
 width="900.000000pt" height="900.000000pt" viewBox="0 0 900.000000 900.000000"
 preserveAspectRatio="xMidYMid meet">
<path d="M0 0 C3.56976464223078 1.8624859002943026 4.183981472831761 2.842253403190398 5.875 6.5 C6.703767899065156 10.220687532141795 7.216405887940482 13.977293086752525 7.75 17.75 C11.102332771121041 39.29607685744719 16.43625778180092 57.14484068748192 32.95703125 72.42578125 C47.21691600960537 84.35752155905755 65.64598476901983 89.14890681842951 83.81640625 90.88671875 C84.82682983398445 90.99379150390627 84.82682983398445 90.99379150390627 85.857666015625 91.10302734375 C87.77823980877838 91.30245277210841 89.70162471241565 91.47423239641182 91.625 91.64453125 C94.875 92.5 94.875 92.5 97.3125 94.87890625 C98.875 97.5 98.875 97.5 98.875 100.625 C97.70425014342345 103.99090583765741 96.8671553844747 104.67675594200432 93.875 106.5 C91.3798828125 107.12841796875 91.3798828125 107.12841796875 88.578125 107.4921875 C87.54453857421879 107.63704589843752 86.51095214843747 107.78190429687498 85.446044921875 107.93115234375 C84.3501000976562 108.07762207031249 83.2541552734375 108.224091796875 82.125 108.375 C63.53901153915683 111.11752271115046 46.334241493024365 115.83120867309117 31.875 128.5 C31.1982421875 129.0710546875 30.521484375 129.64210937500002 29.82421875 130.23046875 C12.719057352310983 145.80779048886632 9.022498280186369 170.8292329554596 5.8125 192.5625 C5.697773437500018 193.46097656250004 5.583046875000036 194.35945312499996 5.46484375 195.28515625 C4.7794163112155275 197.8589135863631 3.9380474345109633 198.85576670632963 1.875 200.5 C-0.7926554802361352 201.65598404143566 -1.9237410187473643 201.55750256607217 -4.75 200.75 C-7.125 199.5 -7.125 199.5 -9.125 196.5 C-9.557047066486575 194.5131190896987 -9.904929177079225 192.50742158766644 -10.203125 190.49609375 C-10.48530883789067 188.68504150390623 -10.48530883789067 188.68504150390623 -10.773193359375 186.83740234375 C-10.870829772949264 186.20034362792967 -10.968466186523415 185.56328491210934 -11.069061279296875 184.90692138671875 C-14.562109358320185 162.42109946834557 -19.902586615064138 142.39872526450665 -37.28125 126.53125 C-52.11643263686358 114.2760991260692 -70.42525549301547 110.50587145003658 -88.9609375 107.9765625 C-90.10820312500005 107.81929687500002 -91.25546874999998 107.66203124999998 -92.4375 107.5 C-93.94763671875 107.31437499999998 -93.94763671875 107.31437499999998 -95.48828125 107.125 C-98.43758929827345 106.42590475892777 -99.99391755773172 105.65099910060724 -102.125 103.5 C-102.62109375 101.5625 -102.62109375 101.5625 -102.5625 99.5 C-102.56121093750005 98.81937499999998 -102.55992187499999 98.13875000000002 -102.55859375 97.4375 C-101.9834142856223 94.86732869971746 -101.20386821834995 94.11833162625317 -99.125 92.5 C-96.407958984375 91.887451171875 -96.407958984375 91.887451171875 -93.12109375 91.54296875 C-91.9138061523438 91.40334716796875 -90.70651855468748 91.2637255859375 -89.462646484375 91.119873046875 C-88.82559783935551 91.05005218505858 -88.1885491943359 90.98023132324221 -87.53219604492188 90.90829467773438 C-66.01039632305037 88.49579106018109 -46.69971767118352 83.16091329453747 -30.8828125 67.49609375 C-17.704084547387197 53.65163624101808 -13.969841428021823 34.78308040457773 -10.984375 16.55859375 C-10.423607159853873 13.189797064340837 -9.835258235230185 9.831537390333125 -9.15625 6.484375 C-9.012519531250064 5.768623046875007 -8.868789062500014 5.052871093750014 -8.720703125 4.3154296875 C-8.125 2.5 -8.125 2.5 -5.875 0.3125 C-3.125 -0.5 -3.125 -0.5 0 0 Z " fill="currentColor" transform="translate(735.125,146.5)"/>
<path d="M0 0 C0.837890625 0.4086328125000023 1.67578125 0.8172656250000045 2.5390625 1.23828125 C14.630480936504682 7.744615932500153 24.02089633566561 18.7824580545649 30 31 C35.80005002468488 46.151151084891126 36.90487428725919 61.40713951246329 32 77 C26.271303997335508 92.14598598100287 16.801469536060722 103.97855421829138 2.71484375 112.0859375 C-11.599219651273472 119.7327106036658 -27.574919704867625 121.26927049792084 -43.4375 117.9375 C-58.335548913012985 113.44076873429509 -71.33960738238386 103.8695296747801 -80 91 C-88.18146269920089 77.14160399931279 -91.54029811193556 62.20187515999123 -89.3125 46.25 C-86.47997959661615 30.769489184284225 -79.03519532201881 17.18362681093896 -67 7 C-47.22685706539892 -7.950425145673989 -22.178873371126087 -11.343635807295158 0 0 Z " fill="currentColor" transform="translate(517,178)"/>
<path d="M0 0 C4.153543307086579 2.907480314960651 4.153543307086579 2.907480314960651 5.5 5.75 C6.315657685185897 10.498940300415597 6.051664979670079 13.760807622660536 3.6875 18 C-1.459522823604857 23.204211966089304 -9.102003968291228 25.256575034799027 -15.817626953125 27.675048828125 C-32.60325306451 33.755199183316506 -48.921238535581494 41.38993263411999 -63.5 51.75 C-64.49644531249999 52.45511718749998 -65.49289062499997 53.160234375000016 -66.51953125 53.88671875 C-106.29624449847665 82.92424074135187 -133.55881830559065 123.25487025197594 -146.5 170.75 C-149.96312685138628 185.2714532759839 -152.62244086855515 199.94129528261692 -152.703125 214.89453125 C-152.71167510986328 216.169336013794 -152.71167510986328 216.169336013794 -152.72039794921875 217.4698944091797 C-152.7297856831798 219.26238792175934 -152.73635692266657 221.05489820774062 -152.740234375 222.847412109375 C-152.7498390246587 225.5177448307411 -152.7808801330404 228.18727232838773 -152.8125 230.857421875 C-153.08096571656517 274.40844321588474 -137.08958047115033 317.19389237004805 -109.5 350.75 C-107.36399025032199 353.2132731874376 -105.20620105477661 355.6460918138338 -102.99609375 358.04296875 C-100.78081993633077 360.5705788193824 -100.50631339766079 361.6818153052636 -100.1875 365.125 C-100.5 368.75 -100.5 368.75 -102.0625 371.125 C-105.3030737621715 373.28538250811437 -107.6168440322964 373.68187445670696 -111.5 373.75 C-115.50863298183612 371.8060353527071 -117.88625619290843 369.410393762985 -120.625 365.9375 C-121.40230468749999 364.9552343749999 -122.17960937499998 363.97296875000006 -122.98046875 362.9609375 C-123.3895849609375 362.437255859375 -123.798701171875 361.91357421875 -124.22021484375 361.3740234375 C-125.51961459348735 359.72510944756243 -126.84433190786257 358.09967180268495 -128.17578125 356.4765625 C-149.69997273035918 330.02883664686567 -164.77623092439762 298.1736608903318 -171.5 264.75 C-171.74339111328126 263.6154638671875 -171.74339111328126 263.6154638671875 -171.99169921875 262.4580078125 C-183.2732551212288 207.76167176518788 -170.02023934897448 149.36492981209938 -144.5 100.75 C-141.79778024170878 95.87009637921949 -138.7682264143299 91.27045087279731 -135.5 86.75 C-135.0518896484375 86.12367675781252 -134.603779296875 85.49735351562498 -134.14208984375 84.85205078125 C-120.73607537622289 66.22880564108118 -105.77475292002748 48.762277037876345 -87.5 34.75 C-86.69320800781247 34.12061523437501 -86.69320800781247 34.12061523437501 -85.8701171875 33.478515625 C-66.23291713204799 18.2187515433385 -26.509853501470843 -9.467804821953905 0 0 Z " fill="currentColor" transform="translate(376.5,303.25)"/>
<path d="M0 0 C5.110427870082731 3.1065520510199462 9.444485044160388 6.912774246515596 13.5546875 11.2421875 C14.096013183593755 11.803171386718759 14.637338867187509 12.364155273437518 15.195068359375 12.942138671875 C19.90812811208241 18.032499872450614 23.0435100957377 23.364208490784335 26.1171875 29.5546875 C27.157370193894053 31.59774886546461 28.197742849053157 33.64071352446405 29.23828125 35.68359375 C29.776948242187473 36.7510986328125 30.315615234374945 37.818603515625 30.87060546875 38.91845703125 C33.76520972565356 44.63129297695667 36.72641947624891 50.309523692309426 39.6796875 55.9921875 C40.28082684340848 57.15129121826567 40.88182022608089 58.310470647234524 41.482666015625 59.4697265625 C46.46591518844593 69.08239287680743 51.47448066709285 78.68039124151028 56.5546875 88.2421875 C57.10688964843757 89.28358886718752 57.65909179687492 90.32499023437498 58.22802734375 91.39794921875 C59.756472637112665 94.27601872684096 61.288826066417755 97.15189391443357 62.825439453125 100.02560424804688 C63.70989753566096 101.68172550918416 64.5903766775898 103.33996985332129 65.470703125 104.998291015625 C71.7937963582317 116.7883014185714 77.00538508822854 126.08607211674251 88.5546875 133.2421875 C89.18246093750008 133.63309570312504 89.81023437499994 134.02400390624996 90.45703125 134.4267578125 C94.14232851952943 136.70973227265472 97.8467856391178 138.9596687144283 101.55859375 141.19921875 C109.68695693557436 146.12203025675626 117.66516132613879 151.2841347221248 125.669921875 156.404296875 C128.65099271948498 158.3035437705047 131.640699094301 160.18851628899415 134.6328125 162.0703125 C135.62442382812492 162.69574951171876 136.61603515625006 163.32118652343752 137.6376953125 163.965576171875 C139.5307999848775 165.15914476051069 141.4258722027605 166.3496004714886 143.3232421875 167.536376953125 C155.929206227824 175.5030722865895 155.929206227824 175.5030722865895 159.3671875 181.3671875 C159.7655078125 182.02976562499998 160.163828125 182.69234374999996 160.57421875 183.375 C163.51799927882553 188.98108403497463 163.15129142753676 195.08663874176852 162.5546875 201.2421875 C160.55958102733712 208.29805185453915 156.68655662052652 212.755331965207 150.734375 216.90234375 C144.34457001320948 220.83012710209528 137.89728389863933 220.9539698039498 130.5546875 220.2421875 C123.66283074521243 218.69593758706685 117.85518923933068 214.69843610471867 111.9853515625 210.93212890625 C104.98795227038818 206.45144927805075 97.84600945440843 202.22851359655203 90.69219970703125 198.00439453125 C69.77731833290932 185.6540976574645 69.77731833290932 185.6540976574645 60.01953125 179.42578125 C57.50084800385662 177.8200752497891 54.94832532246869 176.28724293122508 52.37109375 174.77734375 C39.80395030448312 167.35358754997048 32.71893627296049 159.71902366221025 25.79296875 146.890625 C25.28721313476558 145.96209716796875 24.781457519531273 145.0335693359375 24.2603759765625 144.076904296875 C23.021286053642143 141.80072611596404 21.786187862554243 139.52247812133555 20.5546875 137.2421875 C18.71951285853868 146.7332837745971 16.893379421898544 156.22607142235404 15.078567504882813 165.72108364105225 C14.235475106893432 170.13058805485252 13.389353694070337 174.5394647310912 12.5361328125 178.947021484375 C11.711873480049348 183.20558114455253 10.895802599140552 187.46563757898548 10.085235595703125 191.7268238067627 C9.775556617976065 193.34715010331468 9.462998598780814 194.96692905479995 9.147430419921875 196.58611869812012 C5.9150434986135 210.23974689054705 5.9150434986135 210.23974689054705 7.972412109375 223.68798828125 C8.627336425781209 224.76032714843745 9.282260742187532 225.83266601562502 9.95703125 226.9375 C10.313018951415984 227.5328756713867 10.669006652832024 228.1282513427734 11.035781860351563 228.74166870117188 C12.169747617046767 230.628585007144 13.329897187593701 232.49761670293947 14.4921875 234.3671875 C15.236847401808632 235.59525159607483 15.979698615088068 236.8244143150041 16.720703125 238.0546875 C18.222060273864486 240.5405633940702 19.73402513447911 243.01947204064777 21.25537109375 245.4931640625 C28.733126763608198 257.66099025066933 35.969842137285696 269.97757677398636 43.25244140625 282.2626953125 C49.581691435978996 292.93797871637594 55.94547398834038 303.5919209616104 62.35009765625 314.22216796875 C63.94458506451508 316.87144829319163 65.53163945281221 319.5250500217554 67.1171875 322.1796875 C67.62958984374995 323.02724609375 68.14199218750002 323.87480468750005 68.669921875 324.748046875 C76.91190839851731 338.5868222645489 83.35278991365044 353.10374372380113 89.4296875 367.9921875 C90.1670717758825 369.78600882376395 90.90495901283361 371.5796234659613 91.643310546875 373.373046875 C93.57103875701432 378.0600419362754 95.491169206108 382.750108455228 97.40899658203125 387.441162109375 C98.89150196358742 391.0656433288292 100.37770632123966 394.68860198882055 101.86390686035156 398.3115692138672 C105.58031284900983 407.372017505121 109.28541524263687 416.4370401706817 112.98512268066406 425.5043182373047 C115.49398918865018 431.6508382872264 118.0106429415248 437.79411977912855 120.53187561035156 443.9355773925781 C122.33348181902068 448.32508944599294 124.13239386842906 452.71570315844247 125.93099975585938 457.1064453125 C126.78923827336644 459.19985615003634 127.6485902611089 461.2928109269667 128.50918579101563 463.38525390625 C132.6739234122457 473.5133421915707 136.78045976222234 483.6519140149003 140.57421875 493.92578125 C140.86399093627938 494.7103419494629 141.15376312255853 495.49490264892574 141.4523162841797 496.30323791503906 C144.74747855023838 505.34894019438525 146.08461764469985 513.5303520481557 142.9296875 522.9296875 C139.23341519695873 531.970743795244 134.0872595605938 537.527978151548 125.5546875 542.2421875 C124.93980468749999 542.5837890625 124.32492187499997 542.925390625 123.69140625 543.27734375 C116.56770109613785 546.556993874369 107.99612422738778 546.2436324691053 100.48828125 544.55078125 C89.54017092991762 540.911562381433 83.68089603014437 534.7651717837865 77.5546875 525.2421875 C75.47564771116117 521.6551859402691 73.561781131992 517.9982170400893 71.6796875 514.3046875 C71.16502929687499 513.3068725585938 70.65037109374998 512.3090576171875 70.1201171875 511.281005859375 C66.5585781035154 504.3309198908606 63.12652768184921 497.32467427397773 59.84814453125 490.236572265625 C57.649549345795776 485.489630662635 55.34626486686898 480.8003128047259 52.998779296875 476.12548828125 C49.992583143984575 470.1260163057252 47.0019629172225 464.119080629931 44.025634765625 458.104736328125 C40.13402956909806 450.241565712033 36.23357682961591 442.38283944862974 32.32673740386963 434.5272264480591 C29.98293879410653 429.813484767154 27.642966118167124 425.0979199304504 25.311279296875 420.378173828125 C23.02864115069724 415.7581356474011 20.735949581714067 411.1432107896155 18.43653678894043 406.5314998626709 C17.572357945779004 404.7940138486781 16.71165699261769 403.05479284635953 15.854768753051758 401.31369972229004 C9.278084020735946 387.9587847102264 1.9281408348473974 375.961875357003 -7.6328125 364.4921875 C-8.174702148437518 363.8337182617188 -8.716591796875036 363.1752490234376 -9.27490234375 362.496826171875 C-10.414388682806702 361.1131641887347 -11.556001951342864 359.73125112432376 -12.69970703125 358.35107421875 C-14.474492701532768 356.20693455163087 -16.240264107513326 354.05565579982317 -18.00390625 351.90234375 C-23.39375621006286 345.32768466679556 -28.81239112305957 338.78084347688673 -34.3203125 332.3046875 C-38.03408908547226 327.9374876965985 -41.66666503823296 323.51707855829613 -45.2265625 319.0234375 C-47.50571207491964 316.1664753567909 -49.813683514265904 313.33476762626333 -52.1259765625 310.504638671875 C-57.52516748066682 303.8925747506214 -62.82155241440012 297.2195047598392 -68 290.43359375 C-70.53390412710155 287.11587133096714 -73.11141056083181 283.83353779464846 -75.6953125 280.5546875 C-76.61989915126196 279.378990769648 -77.5443754629714 278.2032072594029 -78.46875 277.02734375 C-80.00704971691033 275.0705892681333 -81.54604453130662 273.11439983982075 -83.0869140625 271.15966796875 C-114.79084297717856 230.90056691690097 -114.79084297717856 230.90056691690097 -114.62600708007813 213.5880126953125 C-114.31252204950562 207.78337753033202 -113.19594142387393 202.16980036693303 -112.06640625 196.4765625 C-111.81510835411285 195.16656027908482 -111.5648760374217 193.85635326572856 -111.31562805175781 192.54595947265625 C-110.78816909380839 189.78300393424377 -110.25431419966691 187.02140125585402 -109.7149658203125 184.2607421875 C-108.87541563400293 179.96238336517666 -108.05058404818789 175.66129367900226 -107.2294921875 171.359375 C-107.09321851730346 170.64542823791504 -106.95694484710691 169.93148147583008 -106.81654167175293 169.1958999633789 C-106.54192655173767 167.75681842859854 -106.26737945267644 166.31772391191748 -105.99290084838867 164.8786163330078 C-105.58279010953663 162.73053725642137 -105.17133850598213 160.58271832949163 -104.75967407226563 158.4349365234375 C-102.45448893578481 146.390936739562 -100.28167526744392 134.3260699769695 -98.1953125 122.2421875 C-98.04915496826175 121.39781127929689 -97.90299743652344 120.55343505859378 -97.75241088867188 119.6834716796875 C-96.97761574925727 115.20401922286158 -96.20815707502948 110.7236934267392 -95.4453125 106.2421875 C-96.54601074218749 106.86150146484374 -97.64670898437498 107.48081542968748 -98.78076171875 108.118896484375 C-99.39990447998048 108.46726058959962 -100.01904724121096 108.81562469482424 -100.65695190429688 109.17454528808594 C-103.15850339981705 110.66795885261598 -105.3398540058397 112.43431870003798 -107.5703125 114.3046875 C-108.50230468749999 115.08457031249998 -109.43429687499997 115.86445312500001 -110.39453125 116.66796875 C-111.13002197265627 117.28986083984375 -111.13002197265627 117.28986083984375 -111.88037109375 117.92431640625 C-113.54541946428151 119.3264897454277 -115.22301901409475 120.71262207977497 -116.90234375 122.09765625 C-118.06286194294432 123.06206462313526 -119.22302448039551 124.02690115082169 -120.3828125 124.9921875 C-121.19806396484375 125.66326538085934 -121.19806396484375 125.66326538085934 -122.02978515625 126.347900390625 C-128.72065580229093 131.96460603572103 -131.3279085779564 136.8729817602948 -133.8203125 145.0546875 C-134.144833984375 146.09061035156253 -134.46935546875 147.126533203125 -134.8037109375 148.19384765625 C-139.24740632111843 162.55700501704723 -143.37243924882347 177.0213927305099 -147.52099609375 191.471923828125 C-147.96295822143554 193.00386634826657 -147.96295822143554 193.00386634826657 -148.41384887695313 194.56675720214844 C-148.96639900836078 196.48239968119424 -149.51602272381274 198.39888999764162 -150.06198120117188 200.31642150878906 C-153.58412164918593 212.50171702471175 -156.6271122204721 222.6890376066475 -167.4453125 230.2421875 C-173.6482308475563 233.11671063667245 -180.50990365814113 233.15793801106588 -187.09765625 231.625 C-193.57010824035564 229.3711107090595 -198.26961944002278 225.6619092083307 -202.4453125 220.2421875 C-206.83828945481486 212.7524012481166 -206.4631980630125 204.38870555324206 -205.07756805419922 196.02155685424805 C-203.93295622723036 190.44007582707877 -202.3895039337791 184.96928916568118 -200.84375 179.48828125 C-200.36335851240023 177.73145837711456 -199.88451895737506 175.9742104922567 -199.40713500976563 174.21656799316406 C-198.40903062641792 170.55821271317836 -197.39772324110493 166.9038818626135 -196.37548828125 163.252197265625 C-195.07807692177965 158.6162902496617 -193.80627270570835 153.9738583544093 -192.54343223571777 149.32842922210693 C-191.55725552066718 145.70658163849362 -190.5614974871038 142.08742472734036 -189.56258010864258 138.46907234191895 C-189.09109268906434 136.75990949089584 -188.62150096614215 135.05022232144654 -188.15400314331055 133.33996391296387 C-179.95189443581359 103.44511209822616 -179.95189443581359 103.44511209822616 -169.4453125 92.2421875 C-168.8562109375 91.6092578125 -168.26710937500002 90.97632812500001 -167.66015625 90.32421875 C-164.16241748955986 86.71493478991033 -160.41696540647905 83.40632134195289 -156.61328125 80.125 C-154.19688298948552 78.0264343034811 -151.82002225825653 75.88779049750588 -149.4453125 73.7421875 C-146.50852785279153 71.0910475601188 -143.5592870832436 68.45928579003282 -140.5703125 65.8671875 C-136.60239206053672 62.4133296275927 -132.73723995898672 58.852519963783834 -128.86767578125 55.28955078125 C-125.48086689687989 52.17633706077976 -122.04633705961805 49.12974211833563 -118.5703125 46.1171875 C-115.82707831645399 43.69668674981233 -113.13646681584311 41.22018107795452 -110.4453125 38.7421875 C-106.53549654594843 35.14205993834855 -102.58664782231705 31.598011446008115 -98.5703125 28.1171875 C-95.82706856212548 25.696678143051884 -93.13688648779953 23.21973471958654 -90.4453125 20.7421875 C-63.76722472110896 -3.7484951856342263 -34.62844499591802 -19.88493220148422 0 0 Z " fill="currentColor" transform="translate(496.4453125,324.7578125)"/>
<path d="M0 0 C3.57400074151019 3.4907354912600113 6.910602536254601 7.110920362862885 10.125 10.9375 C10.600180664062464 11.501062011718773 11.075361328125041 12.064624023437545 11.56494140625 12.645263671875 C15.38406882050299 17.203678518046786 19.072601778974786 21.856195725957377 22.726318359375 26.547607421875 C26.87121064463895 31.863547341637286 31.115566888928697 37.0948224337842 35.37451171875 42.319580078125 C38.88223554918051 46.62289710063499 42.368984652760446 50.94106234660296 45.81640625 55.29296875 C47.63431130605272 57.546650688899035 49.478684749656 59.770499169889945 51.33984375 61.98828125 C51.932167968750036 62.700488281250045 52.52449218749996 63.41269531249998 53.134765625 64.146484375 C54.31473838605285 65.5642414627655 55.50199013680276 66.97597952816216 56.697265625 68.380859375 C57.23931640625 69.03505859375002 57.781367187499995 69.68925781250005 58.33984375 70.36328125 C58.82831787109376 70.94376220703123 59.31679199218752 71.52424316406245 59.820068359375 72.122314453125 C61.31610612886408 74.50303584462938 61.71605101301196 76.19318319772867 62 79 C61.08659362792969 81.70896911621094 61.08659362792969 81.70896911621094 59.610107421875 84.669677734375 C59.06170700073244 85.78531600952147 58.51330657958988 86.90095428466793 57.94828796386719 88.05039978027344 C57.33465736599737 89.26179009634632 56.72036642510278 90.47284610590964 56.10546875 91.68359375 C55.476932388842386 92.94284609728402 54.849287307902614 94.20254366748543 54.22248840332031 95.46266174316406 C52.90213469890489 98.10917939662693 51.57199527216687 100.75047300002075 50.234619140625 103.388427734375 C48.54388866222422 106.72494598638082 46.87634770218324 110.07240555845351 45.215423583984375 113.4238395690918 C38.67601450287532 126.59919569926922 32.20796680915339 139.44155898406757 23 151 C21.787532132165666 152.64871132552685 20.58127071674312 154.30201457587964 19.3828125 155.9609375 C18.298118208074243 157.43320840942442 17.212182782760863 158.90456573266874 16.125 160.375 C15.533320312499995 161.17679687500004 14.941640624999991 161.97859374999996 14.33203125 162.8046875 C10.093516185252042 168.540750713963 5.821122375729487 174.25071005282484 1.532958984375 179.94970703125 C-2.281904736716683 185.0257190785204 -6.05243723675153 190.13329989232784 -9.8125 195.25 C-14.671573737199878 201.86135032826974 -19.569000618401674 208.44212795641806 -24.5 215 C-29.3849974249149 221.4984084226378 -34.24335576042364 228.01508762289257 -39.0625 234.5625 C-39.63178222656251 235.33585693359373 -40.201064453125014 236.10921386718746 -40.78759765625 236.906005859375 C-43.765569026578476 240.95464691382472 -46.73795692314883 245.00733066539522 -49.70703125 249.0625 C-53.1208917427399 253.72112876864912 -56.54952759661671 258.3684174171849 -60 263 C-60.40976074218747 263.550751953125 -60.819521484375 264.10150390624995 -61.24169921875 264.6689453125 C-68.41855550693776 274.23595960862576 -76.20877343813515 282.6311548640649 -88.1796875 285.52734375 C-95.91282608984864 286.751986693944 -103.692720108569 285.4168311336034 -110.6875 281.9375 C-118.06502387192444 277.3761277135951 -122.75482521996727 271.7451565323088 -125.5 263.5 C-128.02127946503995 253.82949254075788 -127.46338792181132 245.43174195059305 -124 236 C-119.85448819416405 227.3250296573177 -114.43369386115279 219.43710111638075 -109.059814453125 211.4959716796875 C-106.59403849306591 207.85101189527143 -104.14449575405922 204.1951844318471 -101.6953125 200.5390625 C-101.20633483886718 199.80953369140627 -100.71735717773436 199.08000488281255 -100.21356201171875 198.328369140625 C-95.8859419215172 191.8580914173432 -91.67233451815775 185.3214138389519 -87.5 178.75 C-82.76605494392004 171.29939913917576 -77.97649916606912 163.89573103561554 -73.0625 156.5625 C-55.723197875594224 130.66864174812758 -40.0515356375052 105.92707895581452 -29.163421630859375 76.5863037109375 C-28.223193065095188 74.05276609822772 -27.27872215154889 71.52084370916214 -26.333251953125 68.9892578125 C-24.960367457306745 65.31209796197345 -23.58913633043892 61.63432815365684 -22.21923828125 57.9560546875 C-18.62044175138942 48.29488571635113 -15.010975319002057 38.637713684443156 -11.3966064453125 28.98236083984375 C-10.20096297046507 25.785991188937942 -9.008123858604904 22.588584393195333 -7.8154296875 19.39111328125 C-7.078905853188417 17.422151957723827 -6.342258385288574 15.4532368756486 -5.60546875 13.484375 C-5.101760025024419 12.130814056396503 -5.101760025024419 12.130814056396503 -4.5878753662109375 10.749908447265625 C-4.275524444580071 9.916882019042987 -3.963173522949205 9.083855590820349 -3.641357421875 8.2255859375 C-3.2362317657471067 7.140809631347679 -3.2362317657471067 7.140809631347679 -2.8229217529296875 6.03411865234375 C-1.9841655951624375 3.9608601205227387 -1.0267169784324892 1.9860138121571254 0 0 Z " fill="currentColor" transform="translate(377,574)"/>
</svg>
