<?xml version="1.0" standalone="no"?>
<!DOCTYPE svg PUBLIC "-//W3C//DTD SVG 20010904//EN"
 "http://www.w3.org/TR/2001/REC-SVG-20010904/DTD/svg10.dtd">
<svg version="1.0" xmlns="http://www.w3.org/2000/svg"
 width="900.000000pt" height="900.000000pt" viewBox="0 0 900.000000 900.000000"
 preserveAspectRatio="xMidYMid meet">
<metadata>
Created by potrace 1.10, written by Peter Selinger 2001-2011
</metadata>
<g transform="translate(0.000000,900.000000) scale(0.100000,-0.100000)"
fill="currentColor" stroke="none">
<path d="M4213 7648 c-12 -13 -24 -44 -28 -71 -6 -36 -13 -51 -29 -57 -31 -13
-156 -30 -221 -30 -30 0 -72 -7 -92 -15 -19 -8 -54 -15 -77 -15 -23 0 -51 -7
-62 -15 -10 -8 -32 -15 -49 -15 -16 0 -41 -7 -55 -15 -14 -8 -37 -14 -51 -15
-14 0 -34 -7 -45 -15 -10 -8 -27 -15 -36 -15 -9 0 -29 -6 -45 -14 -15 -7 -46
-21 -68 -31 -22 -9 -47 -21 -55 -26 -8 -5 -22 -12 -30 -15 -8 -3 -22 -10 -30
-15 -8 -5 -19 -11 -25 -13 -5 -2 -17 -7 -25 -10 -8 -3 -28 -15 -45 -26 -16
-11 -39 -24 -50 -30 -57 -30 -146 -90 -175 -118 -14 -14 -32 -27 -42 -31 -52
-19 -334 -298 -428 -422 -35 -46 -66 -86 -69 -89 -14 -12 -93 -131 -111 -165
-6 -11 -19 -33 -30 -50 -11 -16 -22 -37 -26 -45 -3 -8 -9 -22 -14 -30 -5 -8
-19 -35 -31 -60 -12 -25 -25 -52 -30 -60 -5 -8 -12 -22 -15 -30 -3 -8 -12 -26
-19 -40 -22 -41 -23 -100 -3 -113 14 -9 30 -5 80 21 35 18 69 32 76 32 8 0 26
6 40 14 38 19 90 36 140 47 23 5 51 13 61 19 11 5 39 10 63 10 24 0 68 7 98
15 63 17 193 19 260 4 25 -5 72 -13 105 -17 33 -5 70 -13 82 -20 12 -7 32 -12
45 -12 13 0 33 -7 44 -15 10 -8 27 -15 36 -15 9 0 29 -7 45 -15 15 -7 48 -24
73 -35 25 -12 63 -32 85 -45 46 -28 77 -31 95 -10 7 8 20 15 30 15 10 0 23 7
30 15 7 8 20 15 30 15 10 0 23 7 30 15 7 8 22 15 34 15 12 0 31 7 42 15 10 8
30 15 44 15 14 0 36 7 50 15 14 8 39 14 56 15 17 0 51 7 74 15 27 9 79 15 141
15 l99 0 0 -593 0 -594 23 -21 c16 -15 36 -22 65 -22 37 0 45 4 62 33 20 31
20 50 20 612 l-1 580 98 -1 c100 -1 182 -15 241 -40 18 -8 41 -14 52 -14 10 0
31 -6 47 -14 15 -8 72 -36 126 -62 l98 -48 37 18 c20 10 44 22 52 27 8 5 22
12 30 15 8 3 22 10 30 15 8 5 22 12 30 15 8 3 28 12 43 20 16 7 36 14 46 14 9
0 26 7 37 15 10 8 33 15 49 15 17 0 41 7 55 15 14 8 45 15 70 15 25 0 70 7
100 15 30 8 96 15 145 15 50 0 115 -7 145 -15 30 -8 70 -15 89 -15 30 0 72
-11 166 -42 17 -6 41 -12 55 -15 14 -2 41 -12 60 -21 19 -8 51 -22 70 -30 19
-8 47 -21 63 -29 15 -8 32 -11 37 -8 14 9 12 72 -3 103 -8 15 -21 42 -30 60
-9 19 -17 39 -17 47 0 7 -7 18 -15 25 -8 7 -15 20 -15 30 0 10 -7 23 -15 30
-8 7 -15 19 -15 26 0 8 -20 43 -45 80 -25 36 -45 68 -45 71 0 3 -13 22 -30 43
-16 21 -30 42 -30 46 -1 5 -11 21 -23 35 -12 14 -49 59 -82 100 -80 98 -232
251 -325 324 -41 33 -79 65 -85 71 -9 10 -98 72 -143 99 -9 6 -43 27 -74 48
-32 21 -68 42 -80 47 -13 6 -30 14 -38 19 -8 5 -22 12 -30 15 -8 3 -23 10 -32
16 -10 5 -26 15 -35 20 -10 6 -25 13 -33 16 -26 10 -84 36 -112 51 -14 7 -34
13 -45 13 -10 0 -27 7 -37 15 -11 8 -31 15 -45 15 -14 1 -37 7 -51 15 -14 8
-38 15 -55 15 -16 0 -39 7 -49 15 -11 8 -36 15 -57 15 -20 0 -56 7 -79 15 -23
8 -66 15 -94 15 -67 0 -177 18 -193 32 -7 6 -13 25 -13 43 0 18 -10 47 -23 66
-19 28 -30 35 -63 37 -31 2 -44 -2 -61 -20z"/>
<path d="M7000 4740 c-8 -5 -26 -10 -38 -10 -13 0 -36 -6 -50 -14 -15 -7 -56
-28 -92 -45 -131 -64 -256 -189 -318 -316 -53 -107 -62 -135 -62 -183 0 -64
-31 -244 -45 -262 -7 -8 -22 -36 -34 -62 -13 -27 -27 -50 -32 -54 -5 -3 -9
-13 -9 -22 -1 -20 -34 -62 -49 -62 -6 0 -11 20 -11 48 -1 26 -7 65 -15 87 -8
22 -15 48 -15 58 0 11 -6 31 -14 45 -7 15 -24 49 -37 75 -42 86 -48 95 -116
166 -76 83 -161 149 -230 180 -11 5 -24 15 -28 20 -3 6 -15 11 -25 11 -10 0
-31 6 -47 14 -67 34 -112 47 -149 44 l-39 -3 -3 -54 c-2 -30 4 -73 12 -99 9
-25 16 -57 16 -72 0 -14 7 -35 15 -46 8 -10 15 -27 15 -37 1 -57 150 -265 252
-352 85 -73 143 -115 158 -115 5 0 10 -3 10 -8 0 -4 24 -18 53 -31 169 -76
168 -75 144 -168 -9 -38 -17 -87 -17 -109 0 -23 -7 -58 -15 -77 -8 -20 -15
-58 -15 -85 0 -38 -5 -53 -23 -70 -22 -20 -33 -22 -158 -22 -129 0 -137 -1
-157 -23 -31 -33 -28 -80 9 -139 l31 -48 -28 -43 c-38 -55 -51 -77 -63 -104
-5 -11 -15 -24 -20 -28 -6 -3 -11 -14 -11 -24 0 -10 -7 -24 -15 -31 -8 -7 -15
-23 -15 -35 0 -12 -7 -39 -15 -58 -18 -44 -20 -212 -4 -254 7 -15 15 -48 19
-73 4 -25 13 -61 21 -80 13 -36 101 -219 122 -255 43 -71 74 -115 105 -147
l36 -38 246 0 c217 0 248 2 272 18 27 18 68 64 68 77 0 4 12 24 28 44 34 46
45 64 77 126 14 28 29 57 34 65 27 50 61 143 71 195 4 22 13 64 20 93 19 83 4
217 -35 307 -7 17 -16 37 -19 45 -3 8 -14 27 -24 41 -9 15 -30 50 -47 78 -16
28 -33 51 -37 51 -19 0 -5 54 22 92 37 51 38 69 1 110 l-29 33 -169 5 -168 5
-3 35 c-5 62 11 72 129 79 57 4 114 13 126 19 12 7 31 12 42 12 20 0 66 17
124 46 16 8 33 14 39 14 6 0 27 14 48 30 21 17 42 30 46 30 15 0 159 153 183
194 27 47 22 62 -26 83 -58 24 -296 31 -347 9 -21 -9 -48 -16 -60 -16 -12 0
-31 -7 -42 -15 -10 -8 -26 -15 -34 -15 -8 0 -45 -25 -83 -55 -37 -30 -69 -55
-72 -55 -19 0 21 118 66 190 5 8 12 22 15 30 11 28 37 85 45 100 5 8 13 25 18
37 6 11 31 37 58 57 26 20 53 40 60 46 7 5 15 10 19 10 12 0 89 64 150 124 79
79 164 203 164 240 0 7 7 19 15 26 8 7 15 24 15 39 0 14 7 35 15 45 8 11 15
34 15 50 0 17 7 53 15 80 23 77 20 130 -10 150 -28 19 -26 18 -45 6z"/>
<path d="M2020 4625 c-7 -8 -18 -15 -25 -15 -8 0 -24 -17 -37 -37 -22 -37 -23
-45 -28 -348 -3 -170 -9 -316 -13 -322 -6 -10 -52 -13 -174 -13 -180 0 -193
-3 -235 -68 -17 -25 -18 -88 -18 -1023 l0 -996 23 -21 c35 -33 105 -31 138 4
l24 26 -3 347 c-3 293 -1 349 11 359 21 18 3067 17 3079 -1 4 -6 8 -163 8
-348 0 -333 0 -336 23 -370 20 -31 28 -34 76 -37 49 -3 57 0 77 25 l23 28 1
972 c0 963 0 973 -21 1012 -11 22 -35 51 -54 65 -33 25 -37 26 -192 26 -110 0
-163 4 -171 12 -9 9 -12 90 -12 305 0 280 -1 294 -22 334 -11 23 -39 54 -61
70 l-40 29 -1182 0 c-1039 0 -1184 -2 -1195 -15z m-93 -1070 c2 -82 5 -160 8
-172 l5 -23 1285 0 1285 0 5 23 c3 12 6 90 8 172 l2 150 95 2 c84 2 98 0 120
-18 l25 -21 3 -291 c2 -176 -1 -294 -6 -299 -7 -7 -32 3 -72 26 -33 20 -65 36
-71 36 -5 0 -9 4 -9 9 0 5 -10 13 -22 17 -13 3 -30 12 -38 18 -42 34 -109 36
-1348 36 -1176 0 -1239 -1 -1307 -27 -5 -2 -23 -12 -40 -23 -16 -11 -39 -24
-50 -30 -11 -6 -33 -19 -50 -30 -44 -29 -54 -33 -70 -26 -13 5 -15 46 -15 285
l0 279 26 32 26 31 102 -3 101 -3 2 -150z"/>
</g>
</svg>
