<svg viewBox="0 0 24 24" fill="none" xmlns="http://www.w3.org/2000/svg">
<path d="M17.2381 9.5499H18.1905C19.2008 9.5499 20.1698 9.95026 20.8842 10.6629C21.5986 11.3755 22 12.3421 22 13.3499C22 14.3577 21.5986 15.3243 20.8842 16.0369C20.1698 16.7495 19.2008 17.1499 18.1905 17.1499H17.2381M17.2381 9.5499H2V18.0999C2 19.1077 2.40136 20.0743 3.11578 20.7869C3.83021 21.4995 4.79918 21.8999 5.80952 21.8999H13.4286C14.4389 21.8999 15.4079 21.4995 16.1223 20.7869C16.8367 20.0743 17.2381 19.1077 17.2381 18.0999V9.5499ZM5.80952 2.8999V5.7499M9.61905 2.8999V5.7499M13.4286 2.8999V5.7499" stroke="currentColor" stroke-width="var(--stroke-main)" stroke-linecap="round" stroke-linejoin="round"/>
</svg> 