<svg viewBox="0 0 24 24" fill="none" xmlns="http://www.w3.org/2000/svg">
<path d="M21.5 3.11111L8.22235 16.3111M15.3194 14.7556L21.5 20.8889M8.22235 7.68889L12.5588 12M9.20588 5.33333C9.20588 7.17428 7.70472 8.66667 5.85294 8.66667C4.00116 8.66667 2.5 7.17428 2.5 5.33333C2.5 3.49238 4.00116 2 5.85294 2C7.70472 2 9.20588 3.49238 9.20588 5.33333ZM9.20588 18.6667C9.20588 20.5076 7.70472 22 5.85294 22C4.00116 22 2.5 20.5076 2.5 18.6667C2.5 16.8257 4.00116 15.3333 5.85294 15.3333C7.70472 15.3333 9.20588 16.8257 9.20588 18.6667Z" stroke="currentColor" stroke-width="var(--stroke-main)" stroke-linecap="round" stroke-linejoin="round"/>
</svg>
