<svg viewBox="0 0 26 25" fill="none" xmlns="http://www.w3.org/2000/svg">
<path d="M17.3636 16.6444V2.19995H1V16.6444H17.3636ZM17.3636 16.6444H25V11.0888L21.7273 7.75551H17.3636V16.6444ZM8.63636 19.4222C8.63636 20.9563 7.41532 22.2 5.90909 22.2C4.40286 22.2 3.18182 20.9563 3.18182 19.4222C3.18182 17.888 4.40286 16.6444 5.90909 16.6444C7.41532 16.6444 8.63636 17.888 8.63636 19.4222ZM22.8182 19.4222C22.8182 20.9563 21.5971 22.2 20.0909 22.2C18.5847 22.2 17.3636 20.9563 17.3636 19.4222C17.3636 17.888 18.5847 16.6444 20.0909 16.6444C21.5971 16.6444 22.8182 17.888 22.8182 19.4222Z" stroke="currentColor" stroke-width="var(--stroke-main)" stroke-linecap="round" stroke-linejoin="round"/>
</svg>
