<svg viewBox="0 0 24 22" fill="none" xmlns="http://www.w3.org/2000/svg">
<path d="M12 13.7273C13.5062 13.7273 14.7273 12.5062 14.7273 11C14.7273 9.49377 13.5062 8.27273 12 8.27273C10.4938 8.27273 9.27273 9.49377 9.27273 11C9.27273 12.5062 10.4938 13.7273 12 13.7273Z" stroke="currentColor" stroke-width="var(--stroke-main)" stroke-linecap="round" stroke-linejoin="round"/>
<path d="M18.7273 13.7273C18.6063 14.0015 18.5702 14.3056 18.6236 14.6005C18.6771 14.8954 18.8177 15.1676 19.0273 15.3818L19.0818 15.4364C19.2509 15.6052 19.385 15.8057 19.4765 16.0265C19.568 16.2472 19.6151 16.4838 19.6151 16.7227C19.6151 16.9617 19.568 17.1983 19.4765 17.419C19.385 17.6397 19.2509 17.8402 19.0818 18.0091C18.913 18.1781 18.7124 18.3122 18.4917 18.4037C18.271 18.4952 18.0344 18.5423 17.7955 18.5423C17.5565 18.5423 17.3199 18.4952 17.0992 18.4037C16.8785 18.3122 16.678 18.1781 16.5091 18.0091L16.4545 17.9545C16.2403 17.745 15.9682 17.6044 15.6733 17.5509C15.3784 17.4974 15.0742 17.5335 14.8 17.6545C14.5311 17.7698 14.3018 17.9611 14.1403 18.205C13.9788 18.4489 13.8921 18.7347 13.8909 19.0273V19.1818C13.8909 19.664 13.6994 20.1265 13.3584 20.4675C13.0174 20.8084 12.5549 21 12.0727 21C11.5905 21 11.1281 20.8084 10.7871 20.4675C10.4461 20.1265 10.2545 19.664 10.2545 19.1818V19.1C10.2475 18.7991 10.1501 18.5073 9.97501 18.2625C9.79991 18.0176 9.55521 17.8312 9.27273 17.7273C8.99853 17.6063 8.69437 17.5702 8.39947 17.6236C8.10456 17.6771 7.83244 17.8177 7.61818 18.0273L7.56364 18.0818C7.39478 18.2509 7.19425 18.385 6.97353 18.4765C6.7528 18.568 6.51621 18.6151 6.27727 18.6151C6.03834 18.6151 5.80174 18.568 5.58102 18.4765C5.36029 18.385 5.15977 18.2509 4.99091 18.0818C4.82186 17.913 4.68775 17.7124 4.59626 17.4917C4.50476 17.271 4.45766 17.0344 4.45766 16.7955C4.45766 16.5565 4.50476 16.3199 4.59626 16.0992C4.68775 15.8785 4.82186 15.678 4.99091 15.5091L5.04545 15.4545C5.25503 15.2403 5.39562 14.9682 5.4491 14.6733C5.50257 14.3784 5.46647 14.0742 5.34545 13.8C5.23022 13.5311 5.03887 13.3018 4.79497 13.1403C4.55107 12.9788 4.26526 12.8921 3.97273 12.8909H3.81818C3.33597 12.8909 2.87351 12.6994 2.53253 12.3584C2.19156 12.0174 2 11.5549 2 11.0727C2 10.5905 2.19156 10.1281 2.53253 9.78708C2.87351 9.4461 3.33597 9.25455 3.81818 9.25455H3.9C4.2009 9.24751 4.49273 9.15011 4.73754 8.97501C4.98236 8.79991 5.16883 8.55521 5.27273 8.27273C5.39374 7.99853 5.42984 7.69437 5.37637 7.39947C5.3229 7.10456 5.18231 6.83244 4.97273 6.61818L4.91818 6.56364C4.74913 6.39478 4.61503 6.19425 4.52353 5.97353C4.43203 5.7528 4.38493 5.51621 4.38493 5.27727C4.38493 5.03834 4.43203 4.80174 4.52353 4.58102C4.61503 4.36029 4.74913 4.15977 4.91818 3.99091C5.08704 3.82186 5.28757 3.68775 5.50829 3.59626C5.72901 3.50476 5.96561 3.45766 6.20455 3.45766C6.44348 3.45766 6.68008 3.50476 6.9008 3.59626C7.12152 3.68775 7.32205 3.82186 7.49091 3.99091L7.54545 4.04545C7.75971 4.25503 8.03183 4.39562 8.32674 4.4491C8.62164 4.50257 8.9258 4.46647 9.2 4.34545H9.27273C9.54161 4.23022 9.77092 4.03887 9.93245 3.79497C10.094 3.55107 10.1807 3.26526 10.1818 2.97273V2.81818C10.1818 2.33597 10.3734 1.87351 10.7144 1.53253C11.0553 1.19156 11.5178 1 12 1C12.4822 1 12.9447 1.19156 13.2856 1.53253C13.6266 1.87351 13.8182 2.33597 13.8182 2.81818V2.9C13.8193 3.19253 13.906 3.47834 14.0676 3.72224C14.2291 3.96614 14.4584 4.15749 14.7273 4.27273C15.0015 4.39374 15.3056 4.42984 15.6005 4.37637C15.8954 4.3229 16.1676 4.18231 16.3818 3.97273L16.4364 3.91818C16.6052 3.74913 16.8057 3.61503 17.0265 3.52353C17.2472 3.43203 17.4838 3.38493 17.7227 3.38493C17.9617 3.38493 18.1983 3.43203 18.419 3.52353C18.6397 3.61503 18.8402 3.74913 19.0091 3.91818C19.1781 4.08704 19.3122 4.28757 19.4037 4.50829C19.4952 4.72901 19.5423 4.96561 19.5423 5.20455C19.5423 5.44348 19.4952 5.68008 19.4037 5.9008C19.3122 6.12152 19.1781 6.32205 19.0091 6.49091L18.9545 6.54545C18.745 6.75971 18.6044 7.03183 18.5509 7.32674C18.4974 7.62164 18.5335 7.9258 18.6545 8.2V8.27273C18.7698 8.54161 18.9611 8.77092 19.205 8.93245C19.4489 9.09397 19.7347 9.18065 20.0273 9.18182H20.1818C20.664 9.18182 21.1265 9.37338 21.4675 9.71435C21.8084 10.0553 22 10.5178 22 11C22 11.4822 21.8084 11.9447 21.4675 12.2856C21.1265 12.6266 20.664 12.8182 20.1818 12.8182H20.1C19.8075 12.8193 19.5217 12.906 19.2778 13.0676C19.0339 13.2291 18.8425 13.4584 18.7273 13.7273Z" stroke="currentColor" stroke-width="var(--stroke-main)" stroke-linecap="round" stroke-linejoin="round"/>
</svg>
