<svg viewBox="0 0 24 24" fill="none" xmlns="http://www.w3.org/2000/svg">
<path d="M20.4578 4.99123C19.9691 4.48673 19.3889 4.08653 18.7503 3.81349C18.1117 3.54044 17.4272 3.3999 16.7359 3.3999C16.0446 3.3999 15.3601 3.54044 14.7215 3.81349C14.0829 4.08653 13.5026 4.48673 13.0139 4.99123L11.9997 6.03775L10.9855 4.99123C9.99842 3.97266 8.6596 3.40043 7.26361 3.40043C5.86761 3.40043 4.52879 3.97266 3.54168 4.99123C2.55456 6.00981 2 7.39129 2 8.83177C2 10.2723 2.55456 11.6537 3.54168 12.6723L11.9997 21.3999L20.4578 12.6723C20.9467 12.168 21.3346 11.5693 21.5992 10.9104C21.8638 10.2514 22 9.54507 22 8.83177C22 8.11847 21.8638 7.41216 21.5992 6.75319C21.3346 6.09421 20.9467 5.49549 20.4578 4.99123Z" stroke="currentColor" stroke-width="var(--stroke-main)" stroke-linecap="round" stroke-linejoin="round"/>
</svg> 