<svg viewBox="0 0 24 25" fill="none" xmlns="http://www.w3.org/2000/svg">
<path d="M3 6.19995H5M5 6.19995H21M5 6.19995V20.2C5 20.7304 5.21071 21.2391 5.58579 21.6142C5.96086 21.9892 6.46957 22.2 7 22.2H17C17.5304 22.2 18.0391 21.9892 18.4142 21.6142C18.7893 21.2391 19 20.7304 19 20.2V6.19995M8 6.19995V4.19995C8 3.66952 8.21071 3.16081 8.58579 2.78574C8.96086 2.41066 9.46957 2.19995 10 2.19995H14C14.5304 2.19995 15.0391 2.41066 15.4142 2.78574C15.7893 3.16081 16 3.66952 16 4.19995V6.19995" stroke="currentColor" stroke-width="var(--stroke-main)" stroke-linecap="round" stroke-linejoin="round"/>
</svg>
