<svg viewBox="0 0 24 24" fill="none" xmlns="http://www.w3.org/2000/svg">
<path d="M8.59 13.51L15.42 17.49M15.41 6.51L8.59 10.49M21 4.5C21 6.15685 19.6569 7.5 18 7.5C16.3431 7.5 15 6.15685 15 4.5C15 2.84315 16.3431 1.5 18 1.5C19.6569 1.5 21 2.84315 21 4.5ZM9 11.5C9 13.1569 7.65685 14.5 6 14.5C4.34315 14.5 3 13.1569 3 11.5C3 9.84315 4.34315 8.5 6 8.5C7.65685 8.5 9 9.84315 9 11.5ZM21 18.5C21 20.1569 19.6569 21.5 18 21.5C16.3431 21.5 15 20.1569 15 18.5C15 16.8431 16.3431 15.5 18 15.5C19.6569 15.5 21 16.8431 21 18.5Z" stroke="currentColor" stroke-width="var(--stroke-main)" stroke-linecap="round" stroke-linejoin="round"/>
</svg>
