<svg viewBox="0 0 24 25" fill="none" xmlns="http://www.w3.org/2000/svg">
<path d="M5 15.3999H4C3.46957 15.3999 2.96086 15.1892 2.58579 14.8141C2.21071 14.439 2 13.9303 2 13.3999V4.3999C2 3.86947 2.21071 3.36076 2.58579 2.98569C2.96086 2.61062 3.46957 2.3999 4 2.3999H13C13.5304 2.3999 14.0391 2.61062 14.4142 2.98569C14.7893 3.36076 15 3.86947 15 4.3999V5.3999M11 9.3999H20C21.1046 9.3999 22 10.2953 22 11.3999V20.3999C22 21.5045 21.1046 22.3999 20 22.3999H11C9.89543 22.3999 9 21.5045 9 20.3999V11.3999C9 10.2953 9.89543 9.3999 11 9.3999Z" stroke="currentColor" stroke-width="var(--stroke-main)" stroke-linecap="round" stroke-linejoin="round"/>
</svg>
