<svg viewBox="0 0 24 25" fill="none" xmlns="http://www.w3.org/2000/svg">
<path d="M16.5 9.96932L7.5 4.79947M3.27 7.5388L12 12.5692L20.73 7.5388M12 22.6001V12.5592M21 16.5437V8.57476C20.9996 8.2254 20.9071 7.88227 20.7315 7.5798C20.556 7.27733 20.3037 7.02616 20 6.85148L13 2.86701C12.696 2.69215 12.3511 2.6001 12 2.6001C11.6489 2.6001 11.304 2.69215 11 2.86701L4 6.85148C3.69626 7.02616 3.44398 7.27733 3.26846 7.5798C3.09294 7.88227 3.00036 8.2254 3 8.57476V16.5437C3.00036 16.8931 3.09294 17.2362 3.26846 17.5387C3.44398 17.8411 3.69626 18.0923 4 18.267L11 22.2515C11.304 22.4263 11.6489 22.5184 12 22.5184C12.3511 22.5184 12.696 22.4263 13 22.2515L20 18.267C20.3037 18.0923 20.556 17.8411 20.7315 17.5387C20.9071 17.2362 20.9996 16.8931 21 16.5437Z" stroke="currentColor" stroke-width="var(--stroke-main)" stroke-linecap="round" stroke-linejoin="round"/>
</svg> 