<svg viewBox="0 0 24 25" fill="none" xmlns="http://www.w3.org/2000/svg">
<path d="M20.7603 13.2182C22.4973 10.1346 23.748 4.10961 14.8543 4.6789M14.8543 4.6789L16.9387 2.8999M14.8543 4.6789L16.9387 6.45796M18.6758 20.3185C18.6758 20.7379 18.5161 21.1402 18.2318 21.4367C17.9475 21.7333 17.5619 21.8999 17.1598 21.8999H3.51598C3.11392 21.8999 2.72832 21.7333 2.44402 21.4367C2.15972 21.1402 2 20.7379 2 20.3185V11.6211C2 11.2017 2.15972 10.7994 2.44402 10.5029C2.72832 10.2063 3.11392 10.0397 3.51598 10.0397H6.54794L8.06393 7.66767H12.6119L14.1279 10.0397H17.1598C17.5619 10.0397 17.9475 10.2063 18.2318 10.5029C18.5161 10.7994 18.6758 11.2017 18.6758 11.6211V20.3185ZM13.3699 15.5745C13.3699 17.3212 12.0124 18.7372 10.3379 18.7372C8.66339 18.7372 7.30594 17.3212 7.30594 15.5745C7.30594 13.8277 8.66339 12.4117 10.3379 12.4117C12.0124 12.4117 13.3699 13.8277 13.3699 15.5745Z" stroke="currentColor" stroke-width="var(--stroke-main)" stroke-linecap="round" stroke-linejoin="round"/>
</svg>
