<svg viewBox="0 0 24 23" fill="none" xmlns="http://www.w3.org/2000/svg">
<path d="M22 3.64241V9.31057M22 9.31057H16.5455M22 9.31057L17.7818 5.1917C16.8048 4.17589 15.596 3.43383 14.2684 3.03476C12.9407 2.63569 11.5374 2.59262 10.1894 2.90957C8.84133 3.22652 7.59255 3.89316 6.55952 4.84729C5.52648 5.80141 4.74288 7.01192 4.28182 8.36587M2 18.7575V13.0893M2 13.0893H7.45455M2 13.0893L6.21818 17.2082C7.19523 18.224 8.40398 18.9661 9.73165 19.3651C11.0593 19.7642 12.4626 19.8073 13.8106 19.4903C15.1587 19.1734 16.4075 18.5067 17.4405 17.5526C18.4735 16.5985 19.2571 15.388 19.7182 14.034" stroke="currentColor" stroke-width="var(--stroke-main)" stroke-linecap="round" stroke-linejoin="round"/>
</svg>
