<svg viewBox="0 0 24 25" fill="none" xmlns="http://www.w3.org/2000/svg">
<path d="M7.01673 19.6163L8.04545 17.1804C7.56538 17.5334 6.56409 18.3031 6.39949 18.5572C6.2349 18.8114 6.05659 18.6631 5.98801 18.5572C4.85642 17.4275 2.51095 15.0834 2.18176 14.7445C1.85257 14.4056 2.0446 14.0384 2.18176 13.8972C3.51894 12.4972 5.79384 10.1257 7.32534 8.55608M7.01673 19.6163L8.66271 21.3109M7.01673 19.6163C6.39949 20.0753 5.32962 21.2897 5.98801 22.4759C6.81098 23.9586 8.14832 23.4291 8.45694 22.4759C8.55077 22.1861 8.6627 21.5933 8.66271 21.3109M7.32534 8.55608C8.11101 7.75088 8.70103 7.15674 8.86846 7.0131C9.36224 6.58947 9.96576 6.83659 10.2058 7.0131C10.583 7.43674 11.4403 8.3052 11.8518 8.38993C12.3661 8.49584 13.6006 9.02538 15.0408 6.58947C16.481 4.15355 18.7442 2.03536 19.3614 1.71763C19.9787 1.3999 20.6988 1.08217 21.5217 2.03536C22.3447 2.98854 21.9925 3.83139 21.316 4.789C20.493 5.95401 16.481 9.02538 15.658 9.87266C14.9996 10.5505 15.178 11.426 15.3494 11.779C15.658 12.1674 16.3576 13.0499 16.6867 13.4736C17.0159 13.8972 16.8239 14.4974 16.6867 14.7445C16.222 15.223 15.6517 15.8111 15.0408 16.4425M7.32534 8.55608L15.0408 16.4425M15.0408 16.4425C12.8571 18.6995 10.1544 21.5094 9.89718 21.8404C9.56799 22.2641 9.27995 22.0169 9.17707 21.8404L8.66271 21.3109" stroke="currentColor" stroke-width="var(--stroke-main)" stroke-linejoin="round"/>
</svg>
