<svg viewBox="0 0 26 25" fill="none" xmlns="http://www.w3.org/2000/svg">
<path d="M25 19.9777C25 20.5671 24.7701 21.1323 24.361 21.5491C23.9518 21.9658 23.3968 22.2 22.8182 22.2H3.18182C2.60316 22.2 2.04821 21.9658 1.63904 21.5491C1.22987 21.1323 1 20.5671 1 19.9777V7.75551C1 7.16614 1.22987 6.60091 1.63904 6.18416C2.04821 5.76741 2.60316 5.53328 3.18182 5.53328H7.54545L9.72727 2.19995H16.2727L18.4545 5.53328H22.8182C23.3968 5.53328 23.9518 5.76741 24.361 6.18416C24.7701 6.60091 25 7.16614 25 7.75551V19.9777Z" stroke="currentColor" stroke-width="var(--stroke-main)" stroke-linecap="round" stroke-linejoin="round"/>
<path d="M13 17.7555C15.41 17.7555 17.3636 15.7657 17.3636 13.3111C17.3636 10.8565 15.41 8.86662 13 8.86662C10.59 8.86662 8.63636 10.8565 8.63636 13.3111C8.63636 15.7657 10.59 17.7555 13 17.7555Z" stroke="currentColor" stroke-width="var(--stroke-main)" stroke-linecap="round" stroke-linejoin="round"/>
</svg>
