<svg viewBox="0 0 24 25" fill="none" xmlns="http://www.w3.org/2000/svg">
<path d="M3.27 7.3386L12 12.369L20.73 7.3386M12 22.3999V12.359M21 16.3435V8.37457C20.9996 8.0252 20.9071 7.68207 20.7315 7.37961C20.556 7.07714 20.3037 6.82596 20 6.65128L13 2.66681C12.696 2.49196 12.3511 2.3999 12 2.3999C11.6489 2.3999 11.304 2.49196 11 2.66681L4 6.65128C3.69626 6.82596 3.44398 7.07714 3.26846 7.37961C3.09294 7.68207 3.00036 8.0252 3 8.37457V16.3435C3.00036 16.6929 3.09294 17.036 3.26846 17.3385C3.44398 17.6409 3.69626 17.8921 4 18.0668L11 22.0513C11.304 22.2261 11.6489 22.3182 12 22.3182C12.3511 22.3182 12.696 22.2261 13 22.0513L20 18.0668C20.3037 17.8921 20.556 17.6409 20.7315 17.3385C20.9071 17.036 20.9996 16.6929 21 16.3435Z" stroke="currentColor" stroke-width="var(--stroke-main)" stroke-linecap="round" stroke-linejoin="round"/>
</svg>
