<svg viewBox="0 0 24 25" fill="none" xmlns="http://www.w3.org/2000/svg">
<path d="M15.64 15.7549L12.0039 12.1989M12.0039 12.1989L8.3679 15.7549M12.0039 12.1989V20.2M19.6305 17.8796C20.5171 17.4069 21.2175 16.6589 21.6211 15.7537C22.0247 14.8484 22.1086 13.8375 21.8596 12.8805C21.6105 11.9234 21.0426 11.0747 20.2456 10.4684C19.4486 9.86199 18.4677 9.53248 17.458 9.53183H16.3126C16.0375 8.49101 15.5247 7.52474 14.8127 6.70566C14.1008 5.88658 13.2082 5.236 12.2022 4.80283C11.1961 4.36967 10.1028 4.16519 9.00431 4.20477C7.90583 4.24436 6.83082 4.52697 5.86011 5.03136C4.88939 5.53575 4.04821 6.2488 3.39983 7.1169C2.75144 7.985 2.31272 8.98556 2.11664 10.0434C1.92055 11.1012 1.97222 12.1887 2.26774 13.2241C2.56327 14.2596 3.09497 15.216 3.82286 16.0216" stroke="currentColor" stroke-width="var(--stroke-main)" stroke-linecap="round" stroke-linejoin="round"/>
</svg>
