<svg viewBox="0 0 24 25" fill="none" xmlns="http://www.w3.org/2000/svg">
<path d="M22 13.501C21.8248 15.3964 21.1135 17.2026 19.9493 18.7085C18.785 20.2143 17.216 21.3574 15.4257 22.0041C13.6355 22.6507 11.6981 22.7741 9.84032 22.3599C7.98251 21.9456 6.28109 21.0109 4.93516 19.6649C3.58923 18.319 2.65445 16.6176 2.2402 14.7598C1.82595 12.902 1.94937 10.9646 2.59601 9.17437C3.24266 7.38415 4.38578 5.8151 5.89162 4.65084C7.39746 3.48658 9.20374 2.77525 11.0991 2.6001C9.98942 4.10136 9.45544 5.95104 9.59427 7.81273C9.7331 9.67441 10.5355 11.4244 11.8556 12.7445C13.1757 14.0646 14.9257 14.867 16.7874 15.0058C18.6491 15.1447 20.4987 14.6107 22 13.501Z" stroke="currentColor" stroke-width="var(--stroke-main)" stroke-linecap="round" stroke-linejoin="round"/>
</svg>
