<svg viewBox="0 0 24 25" fill="none" xmlns="http://www.w3.org/2000/svg">
<path d="M17.4 18.0001C15.846 19.1846 13.9537 19.8409 12 19.8728C5.63636 19.8728 2 12.6001 2 12.6001C3.13081 10.4927 4.69921 8.65156 6.6 7.2001M10.0909 5.54555C10.7167 5.39908 11.3573 5.32586 12 5.32737C18.3636 5.32737 22 12.6001 22 12.6001C21.4482 13.6325 20.7901 14.6044 20.0364 15.5001M13.9273 14.5274C13.6776 14.7953 13.3765 15.0102 13.042 15.1593C12.7074 15.3084 12.3463 15.3885 11.9801 15.395C11.6139 15.4014 11.2501 15.3341 10.9106 15.1969C10.571 15.0597 10.2625 14.8556 10.0035 14.5966C9.74452 14.3376 9.54036 14.0291 9.40319 13.6895C9.26602 13.3499 9.19866 12.9862 9.20512 12.62C9.21158 12.2538 9.29174 11.8927 9.4408 11.5581C9.58986 11.2236 9.80478 10.9225 10.0727 10.6728M2 2.6001L22 22.6001" stroke="currentColor" stroke-width="var(--stroke-main)" stroke-linecap="round" stroke-linejoin="round"/>
</svg> 