<?xml version="1.0" standalone="no"?>
<!DOCTYPE svg PUBLIC "-//W3C//DTD SVG 20010904//EN"
 "http://www.w3.org/TR/2001/REC-SVG-20010904/DTD/svg10.dtd">
<svg version="1.0" xmlns="http://www.w3.org/2000/svg"
 width="900.000000pt" height="900.000000pt" viewBox="0 0 900.000000 900.000000"
 preserveAspectRatio="xMidYMid meet">
<metadata>
Created by potrace 1.10, written by Peter Selinger 2001-2011
</metadata>
<g transform="translate(0.000000,900.000000) scale(0.100000,-0.100000)"
fill="currentColor" stroke="none">
<path d="M5832 7113 c-11 -10 -25 -33 -31 -52 -16 -48 -14 -212 3 -251 23 -56
47 -60 346 -60 148 0 275 -3 284 -6 14 -5 16 -38 16 -264 0 -256 -4 -290 -33
-261 -6 6 -18 11 -27 11 -10 0 -32 8 -51 17 -51 26 -352 26 -392 1 -14 -10
-32 -18 -40 -18 -39 0 -173 -93 -249 -173 -46 -47 -118 -154 -118 -175 0 -5
-7 -15 -15 -22 -8 -7 -15 -22 -15 -34 0 -12 -5 -27 -11 -33 -15 -15 -34 -154
-33 -253 0 -209 59 -348 194 -457 36 -29 71 -53 78 -53 6 0 12 -4 12 -9 0 -5
9 -13 21 -16 12 -4 37 -18 58 -32 20 -14 45 -29 56 -34 11 -6 29 -15 40 -22
83 -51 103 -63 120 -75 11 -6 29 -17 40 -22 11 -6 34 -19 50 -30 17 -11 39
-24 50 -30 11 -6 34 -19 50 -29 17 -11 47 -29 67 -40 21 -11 57 -33 80 -48 24
-15 59 -36 78 -46 19 -11 53 -31 75 -46 148 -98 336 -143 440 -106 22 8 47 15
56 15 51 0 204 94 284 175 64 63 145 169 145 188 0 8 7 20 15 27 8 7 15 20 15
30 0 10 7 23 15 30 8 7 15 22 15 34 0 11 7 30 15 40 8 11 15 34 15 52 0 17 7
48 15 67 20 49 20 204 -1 276 -31 108 -73 178 -147 246 -38 36 -73 65 -78 65
-4 0 -25 12 -46 26 -21 14 -47 30 -58 35 -11 5 -33 18 -50 29 -16 11 -37 23
-45 27 -8 4 -47 26 -86 50 -39 24 -74 43 -77 43 -4 0 -23 12 -44 26 -21 14
-47 30 -58 35 -11 5 -33 18 -50 29 -16 11 -39 24 -50 30 -47 25 -67 39 -90 60
l-25 23 1 319 0 318 22 5 c12 3 144 7 292 8 216 2 276 5 300 17 l30 15 3 149
c2 142 1 150 -19 173 l-22 23 -708 0 c-659 0 -708 -1 -727 -17z m1353 -1492
c3 -5 19 -12 35 -16 17 -4 30 -10 30 -14 0 -4 11 -13 24 -21 29 -15 85 -90
105 -140 22 -53 27 -290 7 -329 -9 -16 -16 -39 -16 -50 0 -21 -14 -51 -70
-155 -49 -90 -202 -256 -236 -256 -6 0 -17 -7 -24 -15 -7 -8 -22 -15 -34 -15
-11 0 -30 -7 -40 -15 -14 -11 -47 -15 -116 -15 -90 0 -101 2 -158 33 -59 31
-132 108 -132 139 0 8 -7 23 -15 34 -20 27 -21 288 0 324 8 14 15 36 15 50 0
14 7 34 15 44 8 11 15 27 15 37 0 9 7 22 15 29 8 7 15 19 15 27 0 41 169 226
245 268 93 51 136 63 227 64 48 1 89 -3 93 -8z"/>
<path d="M6920 5402 c-19 -10 -48 -26 -63 -36 -31 -21 -117 -128 -117 -146 0
-6 -6 -21 -14 -33 -7 -12 -19 -54 -26 -94 -21 -119 13 -207 100 -252 43 -22
124 -29 135 -11 4 6 21 17 40 24 56 24 130 106 167 186 47 103 58 175 33 224
-8 15 -15 34 -15 40 0 17 -69 81 -107 100 -40 20 -88 19 -133 -2z"/>
<path d="M2567 7067 l-27 -22 -3 -570 -2 -569 -30 -7 c-77 -17 -131 -68 -153
-145 -7 -24 -12 -104 -12 -187 0 -80 -3 -152 -6 -161 -3 -9 -16 -16 -28 -16
-12 0 -31 -7 -42 -15 -10 -8 -27 -15 -36 -15 -21 0 -92 -35 -135 -67 -17 -12
-35 -23 -38 -23 -12 0 -130 -94 -181 -145 -54 -54 -174 -208 -174 -223 0 -5
-7 -15 -15 -22 -8 -7 -15 -20 -15 -30 0 -10 -7 -23 -15 -30 -8 -7 -15 -21 -15
-30 0 -10 -6 -31 -14 -47 -22 -45 -38 -94 -46 -148 -5 -27 -14 -66 -19 -85
-19 -62 -14 -124 12 -148 l23 -22 1023 0 c686 0 1029 3 1042 10 17 10 19 22
19 108 -1 65 -5 105 -15 122 -8 14 -14 39 -15 56 0 16 -7 39 -15 50 -8 10 -15
27 -15 37 0 17 -14 50 -41 97 -5 8 -12 22 -15 30 -13 34 -16 39 -68 120 -37
58 -64 88 -156 179 -116 115 -275 209 -405 240 l-30 7 -5 174 c-6 212 -19 250
-97 299 -26 17 -56 31 -65 31 -10 0 -18 6 -18 13 0 6 0 260 0 562 l1 551 -32
32 c-38 39 -81 42 -122 9z"/>
<path d="M7783 5000 c-29 -12 -40 -68 -21 -106 13 -27 63 -53 143 -73 17 -4
40 -13 52 -19 24 -13 92 -16 108 -4 6 4 18 20 28 35 16 24 16 32 5 63 -9 27
-23 40 -56 55 -25 10 -51 19 -59 19 -8 0 -26 6 -41 14 -35 18 -131 28 -159 16z"/>
<path d="M4346 4596 c-20 -23 -36 -52 -36 -62 0 -10 -7 -28 -15 -38 -8 -11
-15 -28 -15 -37 0 -10 -7 -31 -15 -48 -8 -17 -22 -45 -30 -62 -8 -17 -15 -38
-15 -48 0 -9 -7 -26 -15 -37 -8 -10 -15 -28 -15 -39 0 -11 -7 -29 -15 -39 -8
-11 -15 -29 -15 -40 0 -12 -7 -30 -15 -40 -8 -11 -15 -29 -15 -40 0 -12 -7
-30 -15 -40 -8 -11 -15 -30 -15 -42 0 -12 -7 -27 -15 -34 -8 -7 -15 -22 -15
-34 0 -12 -7 -31 -15 -42 -8 -10 -15 -28 -15 -39 0 -11 -7 -29 -15 -39 -8 -11
-15 -28 -15 -37 0 -10 -6 -30 -14 -46 -8 -15 -22 -48 -31 -73 -9 -25 -23 -58
-31 -73 -8 -16 -14 -36 -14 -45 0 -9 -7 -26 -15 -36 -8 -11 -15 -29 -15 -40 0
-12 -7 -29 -15 -40 -19 -25 -29 -115 -16 -148 l11 -28 444 0 c343 0 446 -3
454 -12 6 -8 11 -214 13 -568 l4 -555 -337 -5 c-414 -6 -381 8 -386 -166 -2
-64 -1 -132 3 -150 12 -67 -20 -64 823 -64 l759 0 34 23 34 23 3 135 3 135
-31 29 -31 30 -332 5 -332 5 -3 554 c-1 401 1 558 9 567 9 11 92 14 450 14
l439 0 17 35 c17 36 12 70 -22 150 -7 17 -21 50 -30 75 -9 25 -23 58 -31 73
-8 16 -14 36 -14 46 0 9 -7 26 -15 37 -8 10 -15 28 -15 39 0 11 -7 29 -15 39
-8 11 -15 29 -15 41 0 12 -7 30 -15 41 -8 10 -15 28 -15 40 0 11 -7 29 -15 40
-8 10 -15 27 -15 36 0 9 -7 30 -15 47 -8 17 -22 45 -30 62 -8 17 -15 38 -15
48 0 9 -7 26 -15 37 -8 10 -15 28 -15 39 0 11 -7 29 -15 39 -8 11 -15 28 -15
39 0 10 -6 31 -14 45 -27 52 -46 103 -46 121 0 10 -7 24 -15 31 -8 7 -15 22
-15 34 0 12 -7 31 -15 42 -8 10 -15 28 -15 40 0 11 -17 37 -37 57 l-36 37
-498 0 -498 0 -35 -44z"/>
<path d="M7550 4574 c-26 -22 -31 -33 -28 -62 2 -30 12 -43 58 -80 30 -24 66
-54 80 -66 50 -43 76 -56 115 -56 50 0 63 9 73 46 15 56 5 71 -97 147 -149
111 -152 112 -201 71z"/>
<path d="M7152 4283 c-12 -15 -22 -31 -22 -36 0 -5 27 -65 60 -132 48 -98 68
-128 95 -145 l34 -21 40 21 c39 19 41 23 41 65 0 24 -4 46 -9 49 -11 7 -51 88
-51 103 0 6 -7 16 -15 23 -8 7 -15 19 -15 27 0 7 -10 27 -22 43 -19 26 -28 30
-68 30 -38 0 -50 -5 -68 -27z"/>
</g>
</svg>
