<?xml version="1.0" standalone="no"?>
<!DOCTYPE svg PUBLIC "-//W3C//DTD SVG 20010904//EN"
 "http://www.w3.org/TR/2001/REC-SVG-20010904/DTD/svg10.dtd">
<svg version="1.0" xmlns="http://www.w3.org/2000/svg"
 width="900.000000pt" height="900.000000pt" viewBox="0 0 900.000000 900.000000"
 preserveAspectRatio="xMidYMid meet">
<metadata>
Created by potrace 1.10, written by Peter Selinger 2001-2011
</metadata>
<g transform="translate(0.000000,900.000000) scale(0.100000,-0.100000)"
fill="currentColor" stroke="none">
<path d="M6021 7458 c-20 -21 -31 -44 -31 -63 -1 -16 -7 -41 -15 -55 -8 -14
-14 -40 -15 -58 0 -18 -5 -43 -12 -55 -6 -12 -15 -40 -19 -62 -10 -51 -28
-122 -41 -160 -6 -16 -14 -50 -18 -75 -10 -54 -28 -124 -42 -165 -6 -16 -13
-46 -15 -65 -3 -19 -11 -49 -19 -67 -8 -17 -14 -43 -14 -58 0 -14 -5 -36 -12
-48 -6 -12 -15 -40 -19 -62 -4 -22 -11 -53 -17 -70 -33 -97 -55 -227 -43 -258
14 -36 55 -41 391 -41 l295 -1 5 -665 5 -665 85 0 85 0 5 665 5 665 321 5
c299 5 323 6 343 24 25 23 28 87 6 126 -8 14 -15 39 -15 55 0 17 -7 41 -15 55
-8 14 -14 39 -15 57 0 17 -5 44 -11 60 -7 15 -15 46 -19 68 -4 22 -12 54 -18
70 -15 44 -32 114 -41 165 -4 25 -13 55 -19 67 -7 12 -12 34 -12 48 0 14 -5
36 -12 48 -6 12 -15 42 -19 67 -4 25 -11 59 -17 75 -14 41 -31 110 -42 169 -5
27 -14 54 -20 60 -5 5 -10 27 -10 47 0 27 -9 50 -33 81 l-33 43 -416 3 -417 2
-30 -32z"/>
<path d="M2683 5421 c-34 -3 -68 -12 -75 -18 -6 -7 -19 -13 -28 -13 -31 0
-190 -147 -190 -175 0 -7 -6 -26 -14 -42 -27 -52 -37 -137 -34 -272 l3 -135
55 -37 c65 -45 128 -113 153 -166 10 -21 25 -51 33 -66 11 -22 14 -80 14 -253
0 -257 -4 -246 89 -220 31 9 85 16 118 16 33 0 96 6 139 14 214 39 2371 39
2603 0 46 -8 109 -14 141 -14 31 0 78 -7 103 -16 79 -27 77 -31 77 192 0 207
7 250 53 354 20 44 127 160 148 160 5 0 23 10 39 22 l30 22 0 140 c-1 97 -5
154 -15 181 -8 22 -15 48 -15 57 0 38 -72 139 -133 188 -34 27 -68 49 -75 50
-7 0 -25 8 -39 18 -26 16 -119 17 -1573 18 -850 1 -1573 -1 -1607 -5z"/>
<path d="M1995 4655 c-16 -7 -37 -16 -45 -20 -61 -25 -122 -87 -160 -163 -26
-53 -30 -72 -30 -144 0 -72 4 -91 30 -143 16 -33 50 -82 75 -110 l45 -50 0
-553 c0 -533 1 -555 20 -600 30 -69 66 -88 173 -95 48 -3 92 -9 97 -12 6 -4
10 -73 10 -169 0 -188 3 -195 82 -216 84 -22 145 14 159 93 4 23 12 57 18 75
6 17 16 47 22 65 6 17 14 50 18 72 4 22 15 52 25 67 l17 27 1680 0 1679 0 25
-27 c14 -15 25 -39 25 -55 0 -16 5 -38 12 -50 6 -12 15 -40 19 -62 4 -22 12
-53 18 -70 6 -16 13 -41 16 -55 11 -52 36 -70 106 -76 59 -6 67 -4 94 18 l29
25 0 167 c1 137 4 168 16 176 8 5 52 10 97 10 102 0 144 21 173 86 19 41 20
67 20 601 l0 558 51 55 c79 87 99 138 99 253 0 118 -16 154 -105 242 -71 70
-110 86 -222 92 -79 4 -118 -4 -173 -38 -8 -5 -24 -13 -35 -18 -43 -20 -110
-109 -128 -170 -6 -22 -13 -260 -16 -592 -7 -615 -1 -567 -75 -621 l-39 -28
-1679 0 -1678 0 -40 25 c-79 50 -74 13 -81 630 -4 302 -10 567 -14 587 -4 21
-13 43 -21 49 -8 6 -14 17 -14 24 0 19 -108 114 -138 122 -14 3 -37 12 -51 19
-34 18 -167 17 -206 -1z"/>
<path d="M3285 3909 c-55 -4 -167 -10 -250 -14 -82 -3 -177 -13 -211 -21 -33
-8 -76 -14 -96 -14 -19 0 -56 -9 -82 -20 l-46 -21 0 -217 c0 -119 4 -223 8
-230 7 -10 340 -12 1633 -10 l1624 3 3 227 2 227 -44 21 c-25 11 -58 20 -73
20 -15 0 -44 5 -63 11 -19 6 -100 15 -180 20 -80 4 -190 13 -245 18 -115 12
-1824 12 -1980 0z"/>
<path d="M6445 2696 l-60 -11 0 -115 0 -115 293 -3 c190 -1 300 1 312 8 32 17
27 83 -9 129 -41 52 -90 64 -253 61 -169 -3 -157 -5 -169 30 -12 34 -19 35
-114 16z"/>
<path d="M3570 2439 c-25 -4 -110 -11 -190 -14 -80 -4 -178 -13 -219 -21 -40
-8 -103 -14 -140 -14 -36 0 -88 -7 -115 -15 -27 -8 -73 -15 -101 -15 -29 0
-72 -7 -95 -15 -23 -8 -62 -15 -87 -15 -24 0 -60 -7 -80 -15 -19 -8 -50 -15
-67 -15 -17 -1 -42 -7 -56 -15 -14 -8 -41 -15 -60 -15 -19 0 -46 -7 -60 -15
-14 -8 -38 -15 -55 -15 -16 0 -39 -7 -49 -15 -11 -8 -29 -15 -41 -15 -12 0
-30 -7 -41 -15 -10 -8 -27 -15 -36 -15 -29 0 -133 -59 -184 -104 -47 -42 -48
-44 -48 -101 0 -57 0 -59 52 -105 28 -25 71 -56 94 -69 24 -12 50 -25 58 -30
56 -31 80 -41 97 -41 10 0 27 -7 37 -15 11 -8 31 -15 45 -15 14 -1 37 -7 51
-15 14 -8 39 -15 55 -15 17 0 41 -7 55 -15 14 -8 39 -14 56 -15 17 0 48 -7 67
-15 20 -8 56 -15 80 -15 25 0 64 -7 87 -15 23 -8 64 -15 90 -15 26 0 67 -7 90
-15 23 -8 68 -15 99 -15 31 0 74 -5 96 -11 22 -6 96 -14 165 -19 69 -4 163
-12 210 -18 142 -18 897 -36 1182 -28 423 11 710 24 748 36 19 5 78 10 130 10
52 0 120 7 150 15 30 8 82 15 115 15 33 0 85 7 115 15 30 8 76 15 101 15 26 0
63 7 82 15 20 8 55 15 77 15 22 0 57 7 77 15 19 8 49 15 65 15 16 0 45 7 65
15 19 8 47 15 62 15 14 0 35 7 45 15 11 8 30 15 42 15 12 0 35 6 51 14 51 26
103 46 117 46 8 0 19 7 26 15 7 8 19 15 27 15 23 0 130 87 158 128 40 59 34
92 -26 146 -53 47 -64 55 -146 94 -26 13 -60 30 -75 38 -14 8 -35 14 -45 14
-11 0 -28 7 -39 15 -10 8 -33 15 -50 15 -16 0 -35 5 -40 10 -6 6 -33 15 -60
20 -27 5 -67 13 -89 19 -109 27 -135 32 -195 41 -36 5 -78 14 -94 19 -15 6
-51 11 -79 11 -29 0 -74 7 -101 15 -27 8 -81 15 -120 15 -39 0 -89 5 -111 11
-22 5 -114 14 -205 19 -91 5 -205 14 -255 19 -107 13 -1498 13 -1565 0z"/>
</g>
</svg>
