<svg width="1573.5" height="1911.46" viewBox="0 0 1573.5 1911.46" fill="none" xmlns="http://www.w3.org/2000/svg">
  <path d="M504.71,1165.41c-89.76,161.62-29.5,369.32-47.5,547.63-26.53,262.65-416.72,254.27-448.43,23.04-11.66-85.05-11.83-394.48,1.2-478.15,27.24-174.91,220.64-270.15,383.11-237.16,33.05,6.71,107.44,55.38,115.44,55.37,7.2,0,57.35-33.82,74.98-40.66,238.56-92.64,505.58,114.58,677.76,259.85,67.13,56.64,264.26,227.43,292.95,298.12,91.05,224.33-180.69,421.15-360.24,257.79l-689.26-685.82Z" fill="currentColor"/>
  <path d="M391.46,64.87c151.98,147.18-13.29,506.01,117.15,674.95,3.71.88,40.24-32.63,47.34-39.01,217.38-195.39,413.69-443.08,629.17-635.95,197.36-176.65,472.13,39.53,363.97,265.46-27.16,56.73-156.3,169.33-209.03,216.54-214.21,191.79-541.07,474.55-838.01,289.11-182.67,143.78-474.25,20.66-494.24-210.13-8.76-101.17-12.32-352.08.98-448.79C32.04,7.91,267.05-55.61,391.46,64.87Z" fill="currentColor"/>
</svg>