<?xml version="1.0" standalone="no"?>
<!DOCTYPE svg PUBLIC "-//W3C//DTD SVG 20010904//EN"
 "http://www.w3.org/TR/2001/REC-SVG-20010904/DTD/svg10.dtd">
<svg version="1.0" xmlns="http://www.w3.org/2000/svg"
 width="900.000000pt" height="900.000000pt" viewBox="0 0 900.000000 900.000000"
 preserveAspectRatio="xMidYMid meet">
<metadata>
Created by potrace 1.10, written by Peter Selinger 2001-2011
</metadata>
<g transform="translate(0.000000,900.000000) scale(0.100000,-0.100000)"
fill="currentColor" stroke="none">
<path d="M5337 6943 c-9 -8 -9 -1355 -1 -1377 6 -14 76 -16 694 -16 568 0 690
2 699 14 8 9 10 200 9 697 l-3 684 -696 3 c-382 1 -699 -1 -702 -5z m1251
-690 l-3 -548 -550 0 -550 0 -3 548 -2 547 555 0 555 0 -2 -547z"/>
<path d="M4564 6471 c-18 -11 -42 -40 -55 -67 -21 -42 -103 -133 -120 -134 -5
0 -107 -74 -179 -129 -52 -40 -175 -169 -230 -241 -64 -84 -88 -128 -83 -150
4 -16 80 -70 125 -90 13 -6 37 -19 53 -30 17 -11 36 -22 43 -25 6 -3 18 -7 25
-10 6 -3 26 -14 42 -25 17 -11 39 -24 50 -30 11 -5 47 -26 80 -45 33 -19 67
-38 75 -42 8 -4 36 -19 61 -35 60 -36 106 -37 136 -1 13 14 23 33 23 42 0 9 7
25 15 35 8 11 15 35 15 53 0 19 7 50 15 70 8 19 15 50 15 68 0 18 7 49 15 68
8 20 15 59 15 87 0 28 5 61 12 73 6 12 14 51 17 87 8 85 25 89 77 18 22 -29
44 -60 49 -69 13 -23 89 -133 165 -239 33 -47 63 -92 67 -100 3 -8 18 -31 32
-50 14 -19 31 -43 36 -52 6 -9 46 -70 91 -136 l80 -119 -15 -34 c-9 -19 -19
-36 -23 -39 -4 -3 -12 -17 -18 -30 -6 -14 -26 -52 -44 -85 -19 -33 -45 -80
-58 -105 -12 -25 -26 -47 -29 -50 -3 -3 -13 -18 -22 -35 -49 -95 -70 -133 -87
-160 -11 -16 -31 -53 -44 -80 -46 -93 -51 -95 -180 -95 -127 0 -133 -3 -138
-65 l-3 -40 -543 -5 c-468 -4 -544 -7 -552 -20 -5 -8 -10 -54 -10 -102 0 -66
4 -90 16 -102 14 -14 171 -16 1575 -16 l1559 0 0 -1123 c0 -1277 -9 -1157 87
-1157 91 0 83 -112 85 1156 l3 1119 72 3 c64 3 75 6 93 29 29 37 29 149 -1
187 l-20 26 -837 2 -836 3 -6 30 c-15 71 -21 75 -126 75 -108 0 -144 11 -121
38 8 9 17 24 21 32 3 8 20 38 37 65 16 28 36 64 44 82 8 17 19 34 25 38 5 3
10 12 10 20 0 8 12 31 26 52 14 21 37 61 50 88 14 28 34 64 44 80 11 17 22 37
26 45 3 8 9 22 14 30 5 8 25 44 44 80 39 75 39 77 -38 180 -41 55 -108 151
-136 195 -14 21 -90 133 -143 209 -12 17 -25 33 -28 36 -3 3 -9 12 -13 20 -15
32 -35 63 -43 69 -8 5 -58 76 -103 146 -56 86 -95 142 -108 153 -14 10 -14 17
-4 46 20 56 -19 125 -79 139 -14 4 -38 19 -52 34 -15 16 -37 38 -49 51 -26 27
-44 28 -84 3z"/>
<path d="M2156 5375 c-15 -8 -36 -15 -46 -15 -10 0 -23 -7 -30 -15 -7 -8 -17
-15 -23 -15 -12 0 -77 -65 -94 -95 -56 -98 -53 -52 -53 -721 0 -595 1 -615 20
-652 20 -39 55 -76 100 -105 21 -15 58 -17 265 -17 174 0 244 -3 253 -12 16
-16 16 -132 -1 -146 -7 -6 -106 -12 -254 -14 l-242 -3 -31 -30 c-60 -56 -80
-98 -80 -166 0 -39 6 -72 17 -92 27 -48 85 -107 106 -107 10 0 27 -5 38 -10
12 -7 128 -11 306 -10 160 0 295 -4 303 -10 11 -7 14 -33 12 -132 -3 -153 5
-168 91 -168 85 0 87 -5 87 -176 l0 -144 -27 -10 c-16 -6 -37 -14 -48 -19 -11
-5 -31 -12 -45 -14 -14 -3 -40 -10 -57 -16 -18 -6 -48 -16 -65 -22 -18 -6 -50
-14 -71 -19 -21 -4 -44 -13 -50 -19 -6 -6 -25 -11 -42 -11 -16 0 -39 -7 -49
-15 -11 -8 -32 -15 -46 -15 -14 0 -35 -7 -46 -15 -10 -8 -30 -15 -44 -15 -14
0 -38 -7 -54 -15 -15 -8 -38 -15 -50 -15 -31 0 -71 -30 -106 -78 -16 -23 -34
-42 -40 -42 -5 0 -21 -17 -35 -37 -20 -30 -25 -50 -25 -97 0 -57 2 -61 42 -98
36 -33 47 -38 91 -38 53 0 87 20 119 68 23 34 24 124 3 142 -28 23 -18 56 23
72 63 25 105 40 142 47 19 4 45 13 57 19 12 7 30 12 40 12 10 0 31 7 47 15 15
8 36 15 45 15 9 0 29 7 45 15 15 8 40 15 55 15 15 0 35 6 46 14 20 13 67 25
115 29 25 2 25 0 28 -77 3 -71 1 -81 -21 -105 -28 -30 -67 -105 -67 -127 0 -8
9 -34 20 -58 57 -127 206 -129 260 -4 11 26 20 53 20 60 -1 20 -32 80 -63 120
-26 33 -28 42 -25 110 l3 73 48 -2 c26 -2 61 -10 77 -18 16 -8 39 -15 52 -15
13 0 32 -7 42 -15 11 -8 30 -15 43 -15 12 0 37 -6 55 -14 51 -21 99 -37 138
-46 83 -19 180 -61 180 -78 0 -7 -7 -29 -15 -49 -19 -44 -19 -71 -1 -115 33
-77 128 -111 198 -71 25 15 78 101 78 128 0 23 -46 99 -80 131 -22 21 -40 46
-40 55 0 21 -62 59 -98 59 -15 0 -36 7 -46 15 -11 8 -31 15 -45 15 -14 1 -37
7 -51 15 -14 8 -36 15 -50 15 -14 0 -34 7 -44 15 -11 8 -31 15 -45 15 -14 1
-37 7 -51 15 -14 8 -37 14 -51 15 -14 0 -34 7 -45 15 -10 8 -30 15 -44 15 -15
0 -30 4 -35 9 -6 6 -28 14 -50 20 -55 13 -109 34 -117 46 -14 18 -9 293 5 302
6 4 46 10 87 13 l75 5 3 143 c3 143 3 143 28 152 14 6 165 10 347 10 389 0
393 1 468 104 26 34 29 48 29 111 0 52 -4 76 -15 85 -8 7 -15 18 -15 26 0 7
-21 30 -47 51 l-46 38 -596 3 c-686 3 -636 -5 -629 95 3 36 10 62 19 68 8 5
116 9 242 9 242 0 259 3 313 55 54 52 59 70 56 209 -1 72 -7 156 -13 186 -6
30 -14 114 -19 185 -5 72 -13 148 -19 170 -6 22 -11 74 -11 115 0 41 -7 104
-15 140 -8 36 -14 104 -15 151 0 140 -41 249 -124 331 -26 26 -54 48 -61 48
-7 0 -18 7 -25 15 -7 8 -22 15 -34 15 -12 0 -28 6 -34 13 -10 9 -108 13 -405
15 -335 2 -396 0 -421 -13z"/>
<path d="M5228 4019 c-17 -9 -18 -40 -18 -411 0 -370 1 -402 18 -414 14 -11
137 -13 635 -14 552 0 620 2 642 16 l25 16 0 393 c0 367 -1 393 -18 408 -17
15 -76 17 -643 17 -405 -1 -630 -4 -641 -11z m919 -361 c16 -15 23 -33 23 -57
0 -44 -6 -54 -47 -75 -43 -22 -405 -24 -457 -2 -51 21 -59 93 -17 138 14 15
43 17 245 17 222 1 230 0 253 -21z"/>
<path d="M5215 3008 c-3 -7 -4 -195 -3 -418 l3 -405 655 0 655 0 0 415 0 415
-653 3 c-517 2 -654 0 -657 -10z"/>
</g>
</svg>
