<?xml version="1.0" standalone="no"?>
<!DOCTYPE svg PUBLIC "-//W3C//DTD SVG 20010904//EN"
 "http://www.w3.org/TR/2001/REC-SVG-20010904/DTD/svg10.dtd">
<svg version="1.0" xmlns="http://www.w3.org/2000/svg"
 width="900.000000pt" height="900.000000pt" viewBox="0 0 900.000000 900.000000"
 preserveAspectRatio="xMidYMid meet">
<metadata>
Created by potrace 1.10, written by Peter Selinger 2001-2011
</metadata>
<g transform="translate(0.000000,900.000000) scale(0.100000,-0.100000)"
fill="currentColor" stroke="none">
<path d="M1253 7229 c-29 -18 -33 -27 -33 -62 0 -23 0 -595 0 -1272 0 -1083 2
-1232 16 -1245 12 -13 78 -16 437 -20 597 -7 1197 -5 1230 4 21 6 27 14 27 36
0 15 -7 33 -15 40 -8 7 -15 17 -15 22 0 14 -121 138 -145 149 -11 5 -27 13
-35 18 -45 25 -91 41 -140 46 -30 4 -268 10 -528 13 -403 6 -474 9 -482 22
-13 22 -13 1865 0 1890 11 20 29 20 1540 20 l1530 0 5 -22 c3 -13 4 -452 3
-977 l-3 -953 -23 -17 c-58 -40 -100 -83 -122 -126 -38 -70 -47 -86 -59 -98
-21 -21 -13 -54 17 -65 28 -9 375 -7 460 4 78 10 72 -89 72 1299 0 1305 2
1256 -45 1297 -19 16 -116 17 -1840 17 l-1820 1 -32 -21z"/>
<path d="M5840 6802 c-8 -3 -22 -12 -31 -22 -20 -20 -59 -106 -59 -129 0 -9
-7 -25 -15 -35 -8 -11 -15 -30 -15 -42 0 -12 -7 -38 -15 -57 -19 -46 -19 -84
0 -121 8 -15 15 -34 15 -40 0 -7 23 -38 51 -70 70 -78 93 -76 165 13 42 53 53
74 58 115 8 74 -11 169 -50 249 -8 16 -14 37 -14 47 0 9 -6 23 -14 30 -8 6
-16 21 -18 32 -3 22 -34 38 -58 30z"/>
<path d="M4125 6150 c-3 -5 -19 -10 -35 -10 -25 0 -57 -12 -110 -42 -8 -4 -22
-11 -30 -15 -49 -22 -210 -167 -210 -190 0 -5 -14 -23 -30 -41 -16 -19 -39
-53 -50 -78 -12 -24 -26 -46 -31 -50 -5 -3 -9 -14 -9 -24 0 -10 -6 -31 -14
-47 -28 -56 -40 -131 -46 -278 -3 -92 -10 -158 -17 -172 -7 -12 -13 -34 -13
-50 0 -15 -7 -37 -15 -47 -8 -11 -15 -33 -15 -49 0 -15 -5 -38 -12 -50 -6 -12
-15 -40 -19 -62 -7 -38 -15 -72 -40 -167 -6 -24 -14 -70 -19 -103 -4 -33 -12
-76 -19 -95 -6 -19 -11 -60 -11 -90 0 -75 -11 -90 -39 -52 -11 17 -21 39 -21
49 0 11 -7 28 -15 39 -8 10 -15 27 -15 37 0 11 -6 31 -13 45 -8 15 -21 43 -30
62 -40 90 -90 191 -98 196 -5 3 -9 13 -9 23 0 10 -7 24 -15 31 -8 7 -15 24
-15 39 -1 14 -7 37 -15 51 -8 14 -14 53 -15 90 0 36 -7 90 -15 120 -8 30 -15
71 -15 91 0 20 -7 42 -15 49 -8 7 -15 21 -15 31 0 27 -67 134 -119 188 -89 92
-245 188 -396 244 -22 8 -56 20 -75 27 -51 19 -128 24 -145 10 -18 -15 -20
-96 -4 -137 6 -15 15 -44 19 -63 12 -54 29 -96 82 -205 59 -122 60 -122 130
-208 67 -81 199 -194 248 -213 8 -3 22 -10 30 -15 8 -5 20 -11 25 -13 6 -1 26
-9 45 -16 19 -7 51 -15 70 -18 58 -8 106 -46 141 -110 11 -20 24 -45 30 -54 5
-10 14 -26 19 -35 6 -10 13 -25 16 -33 10 -26 36 -84 51 -112 7 -14 13 -33 13
-41 0 -8 7 -20 15 -27 8 -7 15 -21 15 -30 0 -10 6 -31 14 -47 8 -15 22 -48 31
-73 9 -25 23 -60 31 -78 8 -18 14 -43 14 -56 l0 -24 -162 -3 c-151 -4 -165 -6
-195 -27 -36 -26 -41 -49 -19 -90 8 -15 24 -48 36 -74 12 -27 26 -50 31 -54 5
-3 9 -13 9 -23 0 -10 7 -24 15 -31 11 -9 15 -34 15 -96 0 -77 -2 -87 -35 -141
-19 -32 -79 -103 -133 -158 -122 -125 -252 -295 -252 -329 0 -8 -7 -19 -15
-26 -8 -7 -15 -22 -15 -34 -1 -11 -7 -32 -15 -46 -8 -14 -15 -38 -15 -55 0
-16 -7 -41 -15 -55 -21 -36 -21 -341 0 -400 8 -23 15 -58 15 -77 0 -19 6 -49
14 -66 8 -18 16 -43 19 -57 5 -24 11 -44 44 -135 35 -96 96 -223 135 -283 15
-24 28 -45 28 -48 0 -11 75 -111 99 -131 l26 -22 473 -1 c300 0 480 4 492 10
17 9 62 68 112 148 28 46 118 227 118 239 0 6 7 26 16 45 39 77 44 91 44 111
1 12 7 33 15 47 8 14 15 39 15 55 0 17 7 41 15 55 8 14 15 45 15 70 0 25 7 72
15 105 17 69 19 202 4 260 -5 22 -14 63 -18 90 -9 54 -26 104 -47 147 -8 14
-14 31 -14 36 0 10 -69 132 -80 142 -3 3 -21 25 -40 50 -19 25 -86 99 -150
166 -90 93 -124 136 -148 187 -44 91 -42 124 10 217 4 8 10 21 13 28 3 6 7 18
10 25 3 6 16 30 30 52 29 48 32 105 8 127 -25 21 -117 37 -255 45 -114 6 -118
7 -118 29 0 20 13 53 42 104 4 8 12 24 17 36 5 11 24 33 41 47 29 25 39 27
119 27 49 0 109 7 137 15 27 8 65 15 85 15 19 0 44 7 55 15 10 8 29 15 40 15
12 0 27 7 34 15 7 8 18 15 26 15 21 0 106 60 144 101 47 51 100 152 100 189 0
44 -44 64 -124 57 -188 -18 -292 -39 -320 -68 -6 -5 -17 -9 -25 -9 -23 0 -118
-67 -172 -120 -52 -51 -122 -143 -138 -180 -6 -14 -16 -34 -23 -45 -23 -40
-28 -50 -38 -72 -5 -13 -14 -23 -20 -23 -15 0 -12 103 5 143 8 20 15 53 15 74
1 21 7 49 15 63 8 14 15 41 15 60 0 19 7 46 15 60 8 14 14 38 15 53 0 16 5 37
10 48 6 10 14 38 19 61 11 50 28 102 47 141 8 16 14 34 14 41 0 22 42 53 137
101 139 71 273 203 332 327 13 27 27 50 32 54 5 3 9 15 9 27 0 12 7 31 15 41
8 11 15 31 15 45 1 14 7 37 15 51 8 14 14 45 15 69 0 24 5 73 11 108 9 49 8
75 -1 109 -15 54 -58 91 -75 64z"/>
<path d="M5822 6061 c-107 -5 -126 -9 -138 -25 -16 -22 -17 -357 -5 -1149 l6
-419 25 -20 c22 -18 36 -19 152 -16 106 2 130 6 145 21 17 17 18 64 21 775 2
416 0 771 -3 788 -5 31 -10 34 -67 47 -7 2 -69 1 -136 -2z"/>
<path d="M5441 4256 c-25 -26 -25 -38 -1 -106 28 -79 58 -134 110 -200 36 -46
50 -60 124 -120 40 -33 66 -70 66 -95 0 -7 -13 -32 -30 -56 -35 -52 -37 -72
-10 -124 17 -33 20 -59 20 -166 0 -69 -5 -150 -10 -180 -6 -29 -15 -171 -20
-314 -6 -143 -15 -291 -20 -330 -5 -38 -9 -112 -10 -162 0 -73 -4 -99 -19
-124 -24 -40 -68 -69 -103 -69 -48 0 -95 -31 -129 -84 -57 -88 -126 -149 -194
-169 -33 -11 -67 -23 -75 -28 -8 -5 -25 -13 -38 -19 -34 -14 -70 -52 -72 -75
-4 -35 -1 -41 28 -56 22 -12 140 -15 668 -17 l640 -3 28 22 c24 19 27 26 21
58 -4 20 -13 43 -21 52 -8 8 -14 23 -14 32 0 9 -4 18 -8 21 -5 3 -26 40 -47
83 -54 109 -96 158 -162 190 -86 43 -108 76 -123 191 -7 53 -16 196 -20 317
-5 121 -13 254 -18 295 -6 41 -12 175 -14 296 -3 202 -1 224 15 242 28 30 33
86 11 109 -57 57 -48 106 30 169 51 40 140 142 157 179 5 11 13 27 18 35 16
26 39 84 52 128 11 38 10 47 -4 70 l-16 27 -394 3 -393 2 -23 -24z"/>
<path d="M7064 3680 c-35 -14 -114 -128 -114 -167 0 -10 -7 -27 -15 -37 -8
-11 -15 -31 -15 -45 0 -14 -7 -35 -15 -45 -8 -11 -15 -36 -15 -55 0 -20 -7
-58 -15 -85 -8 -27 -15 -77 -15 -110 -1 -89 -22 -190 -40 -193 -8 -2 -25 11
-37 29 -62 91 -217 229 -311 278 -23 12 -45 26 -48 31 -3 5 -25 9 -49 9 -39 0
-45 -3 -51 -25 -3 -14 -1 -45 6 -68 6 -23 15 -67 20 -98 4 -30 12 -65 19 -77
6 -11 11 -35 11 -52 0 -17 5 -41 12 -53 6 -12 15 -40 19 -62 7 -41 28 -100 42
-122 6 -10 145 -13 636 -13 l628 0 21 23 c12 13 22 30 22 38 0 8 7 23 15 33 8
11 15 31 15 45 0 14 7 35 15 45 8 11 15 32 15 48 0 15 6 42 14 60 23 55 39
166 43 298 3 112 1 129 -17 158 -27 44 -65 43 -133 -3 -84 -56 -297 -282 -297
-314 0 -6 -4 -11 -9 -11 -5 0 -13 -10 -17 -22 -3 -13 -12 -30 -19 -38 -7 -8
-15 -24 -17 -35 -2 -12 -11 -20 -23 -20 -16 0 -21 9 -27 50 -3 28 -7 78 -7
111 -1 34 -8 81 -16 104 -8 23 -15 59 -15 79 -1 20 -7 47 -15 61 -8 14 -14 34
-15 46 0 28 -65 153 -93 180 -26 26 -64 35 -93 24z"/>
<path d="M6423 2562 c-34 -11 -73 -50 -73 -73 0 -23 26 -136 42 -184 5 -16 14
-45 18 -64 5 -18 13 -38 19 -44 6 -6 11 -18 11 -27 0 -26 67 -147 121 -220
103 -140 217 -225 389 -291 55 -21 293 -24 332 -5 17 9 41 16 53 16 13 0 28 7
35 15 7 8 20 15 30 15 10 0 23 7 30 15 7 8 19 15 27 15 18 0 243 222 243 239
0 7 11 27 24 44 14 18 29 43 35 57 6 14 15 32 20 40 27 48 41 80 41 97 0 10 7
27 15 37 8 11 15 30 15 42 0 12 7 35 15 50 10 19 15 58 15 115 l0 87 -34 16
c-30 14 -108 16 -718 15 -375 -1 -693 -4 -705 -7z"/>
<path d="M4235 1971 c-28 -13 -54 -39 -85 -86 -104 -153 -167 -215 -219 -215
-10 0 -35 -7 -54 -15 -54 -22 -910 -22 -964 0 -19 8 -46 15 -58 15 -12 0 -28
7 -35 15 -7 8 -17 15 -23 15 -13 0 -96 88 -108 115 -5 11 -18 34 -29 50 -11
17 -23 37 -27 45 -3 8 -17 26 -30 40 -24 24 -27 24 -176 22 -84 -2 -170 -8
-192 -14 -22 -6 -69 -14 -105 -19 -65 -7 -127 -21 -185 -41 -16 -5 -46 -13
-65 -17 -19 -4 -44 -12 -55 -18 -11 -5 -38 -18 -60 -29 -22 -10 -59 -33 -82
-52 -70 -55 -57 -111 37 -154 32 -15 54 -23 150 -58 19 -7 55 -15 80 -19 25
-4 55 -13 67 -19 12 -7 35 -12 51 -12 16 0 49 -7 72 -15 23 -8 61 -15 84 -15
22 0 63 -7 90 -15 27 -8 75 -15 106 -15 31 0 79 -7 106 -15 27 -8 78 -15 114
-15 36 -1 92 -7 125 -15 33 -8 96 -15 140 -15 44 -1 103 -6 130 -11 28 -6 133
-14 235 -19 102 -5 237 -14 300 -19 152 -13 1097 -13 1225 0 55 5 186 14 290
18 105 5 208 14 230 20 22 6 69 11 105 11 36 0 90 7 120 15 30 8 77 15 103 15
26 0 64 7 84 15 19 8 51 15 70 15 18 0 50 7 70 15 19 8 47 15 62 15 14 0 35 7
45 15 11 8 27 15 35 15 35 0 120 51 121 72 0 3 -246 8 -547 10 l-548 3 -60 33
c-38 21 -73 50 -95 80 -34 46 -34 48 -34 149 0 94 -2 102 -21 107 -11 3 -139
7 -285 11 -247 5 -268 4 -305 -14z"/>
</g>
</svg>
