<?xml version="1.0" standalone="no"?>
<!DOCTYPE svg PUBLIC "-//W3C//DTD SVG 20010904//EN"
 "http://www.w3.org/TR/2001/REC-SVG-20010904/DTD/svg10.dtd">
<svg version="1.0" xmlns="http://www.w3.org/2000/svg"
 width="900.000000pt" height="900.000000pt" viewBox="0 0 900.000000 900.000000"
 preserveAspectRatio="xMidYMid meet">
<metadata>
Created by potrace 1.10, written by Peter Selinger 2001-2011
</metadata>
<g transform="translate(0.000000,900.000000) scale(0.100000,-0.100000)"
fill="currentColor" stroke="none">
<path d="M4610 8008 c-34 -15 -220 -107 -245 -121 -96 -56 -131 -79 -205 -134
-143 -108 -360 -332 -360 -372 0 -6 -5 -11 -10 -11 -6 0 -15 -10 -20 -22 -6
-13 -19 -36 -29 -53 -11 -16 -29 -50 -41 -75 -12 -25 -28 -57 -36 -72 -8 -14
-14 -35 -14 -46 0 -11 -7 -25 -15 -32 -8 -7 -15 -23 -15 -36 0 -12 -4 -25 -9
-28 -5 -3 -12 -23 -15 -43 -4 -21 -13 -67 -21 -103 -15 -68 -39 -282 -38 -334
3 -91 26 -308 38 -351 21 -74 21 -455 0 -455 -8 0 -21 10 -30 23 -8 12 -35 49
-58 82 -51 71 -65 117 -77 245 -4 52 -13 114 -19 138 -23 89 -33 128 -41 167
-9 47 -27 99 -46 138 -8 16 -14 36 -14 46 0 9 -7 26 -15 37 -8 10 -15 26 -15
35 0 9 -7 22 -15 29 -8 7 -15 19 -15 27 0 8 -13 35 -30 60 -16 24 -30 48 -30
53 0 5 -6 15 -13 22 -6 7 -24 31 -38 53 -80 122 -280 307 -434 401 -27 17 -81
46 -120 64 -38 18 -82 39 -97 46 -14 8 -33 14 -41 14 -9 0 -28 6 -44 14 -15 8
-55 22 -88 31 -33 9 -76 22 -95 28 -19 6 -57 14 -85 18 -27 4 -85 13 -127 20
-99 16 -104 12 -112 -89 -11 -127 1 -350 23 -439 26 -103 33 -130 40 -163 5
-19 13 -46 19 -60 5 -14 18 -45 27 -70 10 -25 23 -58 31 -75 7 -16 15 -37 18
-45 4 -8 15 -28 26 -45 11 -16 24 -39 30 -50 47 -88 158 -233 239 -312 53 -52
205 -173 217 -173 4 0 15 -7 24 -15 25 -23 139 -84 230 -123 19 -8 47 -21 62
-29 14 -7 36 -13 48 -13 12 0 31 -5 42 -11 11 -6 44 -15 72 -19 28 -5 69 -13
91 -19 22 -6 64 -11 93 -11 67 0 97 -17 142 -81 19 -28 41 -57 48 -64 6 -7 12
-16 12 -20 0 -4 19 -32 43 -63 24 -31 47 -64 50 -72 4 -8 16 -28 27 -45 11
-16 23 -37 26 -45 4 -8 12 -21 18 -29 13 -17 20 -727 7 -736 -5 -3 -19 16 -31
42 -91 198 -124 253 -209 353 -68 79 -108 117 -185 177 -113 89 -289 172 -406
193 -25 5 -64 13 -87 19 -49 13 -208 17 -240 7 -11 -4 -24 -13 -27 -21 -5 -15
15 -138 35 -220 6 -22 13 -54 16 -72 3 -18 11 -38 19 -44 8 -6 14 -20 14 -31
0 -11 6 -32 14 -46 7 -15 24 -49 36 -77 13 -27 33 -63 45 -80 12 -16 24 -35
26 -41 7 -20 81 -106 154 -179 70 -70 213 -175 239 -175 7 0 19 -7 26 -15 7
-8 20 -15 30 -15 10 0 23 -6 29 -14 6 -8 24 -16 39 -19 25 -4 43 -10 127 -39
17 -6 95 -16 173 -22 124 -9 146 -14 158 -31 17 -23 19 -301 1 -312 -5 -3
-251 -7 -546 -8 -295 -1 -548 -3 -563 -4 -19 -1 -35 -12 -53 -38 -24 -35 -25
-45 -25 -165 0 -88 5 -148 17 -191 16 -59 54 -117 78 -117 6 0 22 -11 35 -25
22 -24 23 -26 7 -62 -8 -21 -18 -56 -22 -78 -4 -22 -11 -60 -15 -85 -14 -73
-11 -308 5 -380 8 -36 14 -80 15 -99 0 -19 6 -57 14 -85 19 -69 35 -133 45
-179 5 -21 14 -44 20 -50 6 -6 11 -20 11 -30 0 -10 6 -31 14 -45 7 -15 33 -67
57 -116 42 -86 129 -225 199 -317 19 -26 42 -56 50 -68 8 -11 33 -34 57 -51
82 -60 92 -60 665 -63 557 -2 553 -2 621 47 30 22 99 109 110 139 3 9 11 17
16 17 5 0 19 19 31 43 12 23 30 56 40 72 34 55 85 149 94 175 3 8 10 22 14 30
5 8 17 33 26 55 10 22 24 53 32 68 8 16 14 36 14 45 0 9 7 26 15 36 8 11 15
32 15 46 0 14 5 31 11 37 7 7 15 29 18 49 11 70 17 66 226 -156 49 -52 161
-169 249 -260 207 -215 202 -209 208 -298 4 -58 10 -78 28 -97 l23 -25 853 0
853 0 26 27 c24 27 25 31 25 176 0 82 -4 157 -10 167 -5 10 -13 67 -16 128
l-7 109 39 27 c21 14 45 26 54 26 8 1 33 12 55 25 22 14 49 29 60 34 39 18
140 108 188 166 51 64 117 188 117 222 0 11 7 34 15 50 13 27 16 122 18 674 2
605 1 648 -17 704 -38 125 -100 224 -186 301 -69 62 -127 104 -141 104 -8 0
-23 7 -33 15 -11 8 -28 15 -38 15 -10 0 -31 8 -45 18 -25 16 -67 17 -508 17
-442 0 -484 -1 -535 -19 -105 -35 -185 -74 -227 -109 -88 -74 -192 -203 -193
-239 0 -7 -7 -22 -15 -32 -8 -11 -15 -32 -15 -46 0 -14 -6 -32 -12 -38 -9 -9
-14 -78 -18 -245 l-5 -232 -75 -5 c-84 -6 -130 -28 -130 -64 0 -11 -6 -52 -14
-91 -8 -38 -17 -137 -20 -220 -2 -82 -9 -186 -15 -230 -5 -44 -10 -145 -11
-225 0 -80 -6 -165 -11 -190 -6 -25 -13 -75 -16 -112 -3 -38 -9 -68 -14 -68
-9 0 -35 21 -118 96 -66 59 -151 135 -280 249 -63 55 -138 123 -167 152 l-54
51 0 159 0 158 42 37 43 36 5 154 c3 84 3 177 0 205 -10 95 31 88 -549 85
-482 -2 -509 -1 -529 16 -21 18 -21 26 -21 238 0 323 3 461 12 470 4 4 7 14 7
23 0 16 30 78 61 126 10 17 23 40 28 51 5 12 22 31 38 44 30 23 71 24 173 1
60 -13 335 -13 385 0 22 6 65 14 95 18 30 4 65 12 77 19 12 7 31 12 43 12 12
0 34 6 48 13 15 8 43 21 62 29 56 24 123 58 152 76 138 88 199 140 324 273 38
42 122 157 137 189 4 8 16 29 26 45 35 53 61 105 61 119 0 7 7 19 15 26 8 7
15 20 15 30 0 10 7 23 15 30 19 16 20 64 1 82 -29 30 -141 65 -246 78 -36 4
-96 13 -134 20 -90 16 -335 -2 -421 -32 -16 -5 -47 -13 -68 -18 -21 -4 -44
-13 -50 -19 -6 -6 -20 -11 -32 -11 -12 0 -30 -7 -41 -15 -10 -8 -26 -15 -35
-15 -9 0 -22 -7 -29 -15 -7 -8 -18 -15 -25 -15 -11 0 -101 -53 -130 -77 -5 -5
-39 -31 -75 -58 -74 -55 -115 -96 -182 -175 -45 -54 -127 -171 -141 -200 -4
-8 -16 -28 -27 -45 -10 -16 -31 -52 -46 -80 -14 -27 -32 -62 -40 -77 -18 -34
-50 -54 -56 -35 -2 6 -2 140 0 297 2 157 5 344 6 416 0 87 5 136 13 146 7 8
36 26 65 40 107 51 144 70 173 88 17 11 39 24 50 30 48 26 68 39 93 62 15 14
32 27 39 29 38 12 218 199 311 324 17 23 79 121 86 135 3 8 17 35 31 59 14 24
25 50 25 56 0 7 6 18 14 24 8 6 16 24 19 39 5 29 21 76 43 130 8 18 14 45 14
60 1 15 7 38 15 52 8 14 14 51 15 83 0 32 5 67 10 78 24 44 4 452 -26 548 -8
25 -14 56 -14 71 0 14 -7 35 -15 46 -8 10 -15 34 -15 52 0 23 -9 42 -29 63
-31 31 -50 34 -91 17z m2572 -3505 c6 -7 23 -13 36 -13 73 0 271 -198 272
-272 1 -13 7 -34 15 -48 22 -38 22 -1178 0 -1240 -8 -23 -15 -57 -15 -75 0
-18 -7 -38 -15 -45 -8 -7 -15 -17 -15 -22 0 -12 -82 -118 -107 -138 -72 -59
-103 -80 -116 -80 -8 0 -20 -7 -27 -15 -15 -18 -69 -20 -75 -2 -2 6 -6 91 -9
187 -4 173 -16 344 -37 510 -6 47 -14 151 -19 233 -8 155 -22 207 -64 237 -18
13 -100 16 -538 20 -462 4 -519 7 -534 21 -13 14 -17 44 -19 180 -1 101 3 187
10 224 27 130 133 261 250 307 126 49 104 47 562 45 330 -2 435 -5 445 -14z
m-2734 -1015 c18 -18 15 -94 -5 -119 -103 -127 -355 -378 -425 -422 -38 -24
-104 -23 -118 2 -5 11 -10 29 -10 41 0 30 42 92 86 125 41 30 253 243 332 333
42 47 51 52 87 52 23 0 46 -5 53 -12z"/>
<path d="M6698 7498 c-6 -13 -15 -43 -19 -68 -35 -215 -145 -407 -264 -464
-22 -10 -53 -25 -68 -32 -16 -8 -43 -14 -60 -14 -37 0 -91 -30 -106 -58 -8
-15 -6 -23 10 -38 22 -20 120 -54 157 -54 37 0 142 -62 177 -105 55 -66 125
-218 125 -269 0 -18 7 -53 15 -76 8 -23 15 -59 15 -80 0 -54 51 -92 77 -57 18
23 43 103 43 137 1 19 7 46 15 60 8 14 14 39 15 56 0 16 7 39 15 50 8 10 15
29 15 40 0 12 7 27 15 34 8 7 15 19 15 27 0 18 52 88 89 121 33 29 84 52 136
62 33 6 93 20 153 36 15 4 16 60 1 70 -6 4 -25 10 -43 14 -154 39 -259 110
-338 229 -10 14 -21 33 -24 41 -3 8 -12 29 -19 45 -33 77 -56 181 -56 250 0
57 -66 88 -91 43z"/>
<path d="M1560 5495 c-14 -8 -33 -14 -43 -15 -22 0 -147 -124 -147 -147 0 -9
-7 -24 -15 -33 -12 -13 -16 -42 -16 -124 0 -100 2 -110 32 -165 17 -33 45 -72
63 -88 48 -43 94 -73 109 -73 7 0 35 -7 61 -16 48 -17 61 -16 175 13 56 14
140 85 170 143 13 25 30 57 37 72 19 35 19 187 0 213 -7 11 -16 33 -20 49 -9
35 -128 156 -154 156 -9 0 -26 7 -36 15 -27 20 -181 20 -216 0z"/>
</g>
</svg>
