<?xml version="1.0" standalone="no"?>
<!DOCTYPE svg PUBLIC "-//W3C//DTD SVG 20010904//EN"
 "http://www.w3.org/TR/2001/REC-SVG-20010904/DTD/svg10.dtd">
<svg version="1.0" xmlns="http://www.w3.org/2000/svg"
 width="900.000000pt" height="900.000000pt" viewBox="0 0 900.000000 900.000000"
 preserveAspectRatio="xMidYMid meet">
<metadata>
Created by potrace 1.10, written by Peter Selinger 2001-2011
</metadata>
<g transform="translate(0.000000,900.000000) scale(0.100000,-0.100000)"
fill="currentColor" stroke="none">
<path d="M1213 7351 c-13 -11 -27 -30 -32 -42 -14 -39 -14 -1306 1 -1357 7
-24 28 -57 49 -78 34 -34 40 -35 110 -37 82 -1 122 15 159 65 19 26 22 46 25
186 7 236 19 276 90 299 40 13 98 -10 116 -46 10 -19 15 -98 19 -281 5 -243 6
-257 28 -292 34 -54 81 -78 155 -78 62 0 83 8 135 55 12 11 22 27 22 35 0 9 5
21 10 26 6 6 12 100 15 234 l4 223 28 29 27 28 761 0 762 0 24 26 c23 25 24
33 29 199 3 106 9 178 16 185 7 7 48 10 110 8 l99 -3 3 -335 2 -335 -31 -38
c-20 -25 -39 -37 -55 -37 -14 0 -35 -5 -46 -11 -12 -7 -47 -15 -77 -20 -31 -4
-74 -12 -96 -18 -22 -5 -76 -17 -120 -26 -44 -9 -100 -23 -125 -31 -25 -8 -58
-14 -73 -14 -15 0 -44 -7 -64 -15 -19 -8 -49 -15 -65 -15 -16 0 -39 -5 -50
-11 -11 -6 -44 -15 -72 -19 -28 -5 -69 -13 -91 -18 -22 -6 -76 -18 -120 -27
-44 -9 -103 -23 -131 -31 -28 -8 -60 -14 -72 -14 -11 0 -33 -6 -49 -14 -15 -7
-50 -24 -77 -37 -66 -32 -134 -97 -146 -140 -6 -18 -10 -135 -10 -260 0 -265
0 -267 -91 -267 -46 0 -56 -3 -76 -28 -30 -38 -32 -49 -38 -334 -3 -135 -8
-265 -10 -290 -11 -96 -23 -686 -14 -720 16 -65 38 -70 303 -70 l232 0 30 32
c34 37 55 98 48 143 -3 17 -9 159 -14 318 -6 158 -14 324 -19 370 -4 45 -9
172 -10 281 -2 182 -4 204 -24 245 -21 44 -24 46 -76 54 -30 4 -60 12 -68 18
-10 9 -13 61 -13 234 l0 223 39 31 c21 17 45 31 53 31 8 0 23 7 34 15 10 8 36
15 57 15 21 0 48 5 60 12 12 6 42 15 67 19 44 6 87 16 180 39 25 6 65 15 90
19 25 5 58 13 73 20 16 6 45 11 65 11 20 1 48 7 62 15 14 8 43 15 65 15 22 0
51 7 65 15 14 8 43 15 65 15 22 0 51 7 65 15 14 8 45 15 70 15 25 0 56 7 70
15 14 8 41 14 60 15 58 0 189 49 237 87 11 10 36 45 54 78 l33 60 0 360 c1
358 1 360 -22 402 -13 23 -40 54 -59 69 -34 26 -46 28 -155 34 -74 3 -122 10
-130 18 -9 9 -14 70 -18 207 -5 188 -6 194 -29 219 l-24 26 -1231 0 c-1187 -1
-1232 -1 -1253 -19z"/>
<path d="M4795 7360 c-6 -10 -8 -191 -6 -641 l1 -216 25 -11 c19 -9 267 -12
938 -12 864 0 913 1 936 19 l23 18 -1 413 c-1 279 -5 418 -13 427 -8 10 -192
13 -954 13 -636 0 -945 -3 -949 -10z"/>
<path d="M6922 7348 c-6 -17 -8 -800 -3 -839 3 -23 70 -29 339 -29 233 1 291
3 306 15 18 13 19 35 20 432 0 230 -3 424 -7 431 -6 9 -83 12 -328 12 l-319 0
-8 -22z"/>
<path d="M4456 6261 c-13 -23 -15 -95 -16 -425 0 -350 2 -399 16 -421 l16 -25
575 0 575 0 19 23 c17 21 18 46 19 416 0 382 -1 395 -21 427 l-21 34 -574 0
-573 0 -15 -29z"/>
<path d="M5863 6258 c-18 -31 -19 -56 -17 -427 2 -295 5 -400 15 -417 l12 -24
842 0 c665 0 845 3 853 13 7 8 11 133 12 352 2 500 2 501 -16 519 -14 14 -105
16 -849 16 l-833 0 -19 -32z"/>
<path d="M5166 5164 c-11 -11 -16 -35 -16 -79 0 -53 4 -68 22 -85 21 -19 33
-20 439 -20 229 0 431 -3 449 -7 26 -5 97 -69 332 -302 165 -163 304 -297 309
-299 10 -4 11 52 9 498 -1 185 -5 289 -12 297 -8 10 -162 13 -764 13 -671 0
-754 -2 -768 -16z"/>
<path d="M6923 5168 c-4 -7 -7 -201 -6 -431 1 -395 2 -419 19 -432 24 -18 578
-22 618 -4 15 7 26 23 30 41 8 40 5 764 -3 803 l-6 30 -322 3 c-251 2 -323 -1
-330 -10z"/>
<path d="M3656 4780 l-36 -40 0 -1428 c0 -1381 1 -1428 19 -1456 10 -15 32
-37 47 -47 28 -18 76 -19 1500 -19 l1471 0 41 30 42 30 0 1089 c0 1059 -1
1090 -20 1132 -14 32 -106 130 -342 365 -178 177 -343 336 -367 353 l-44 31
-1137 0 -1138 0 -36 -40z m2183 -133 c5 -12 11 -158 13 -325 5 -284 6 -305 25
-330 l20 -27 344 -5 c189 -3 345 -7 347 -8 1 -1 2 -447 2 -990 l0 -989 -25
-11 c-37 -17 -2723 -17 -2760 0 -23 10 -25 17 -25 72 -1 34 -1 631 -2 1329 -1
1207 0 1268 17 1287 18 20 32 20 1027 20 l1009 0 8 -23z"/>
<path d="M4479 3959 c-147 -10 -140 4 -141 -290 -1 -238 -1 -239 22 -264 l23
-25 240 0 c234 0 240 0 263 23 24 22 24 22 24 263 l0 241 -26 24 c-21 20 -37
24 -102 26 -42 2 -106 4 -142 6 -36 1 -108 -1 -161 -4z"/>
<path d="M5298 3960 c-94 -5 -121 -9 -135 -23 -16 -16 -18 -43 -18 -266 0
-231 1 -250 19 -270 18 -20 28 -21 260 -21 133 0 246 4 252 8 5 4 18 18 27 32
15 21 17 54 17 244 0 201 -2 221 -20 251 -18 29 -27 33 -92 43 -40 7 -100 11
-133 9 -33 -1 -113 -4 -177 -7z"/>
<path d="M4413 3147 c-18 -7 -43 -22 -55 -35 -23 -22 -23 -25 -21 -253 l2
-231 27 -29 28 -29 229 0 229 0 29 29 29 29 0 234 c0 233 0 235 -23 256 -13
13 -39 27 -58 32 -48 14 -376 11 -416 -3z"/>
<path d="M5202 3146 c-58 -21 -57 -18 -60 -277 l-3 -239 30 -30 29 -30 226 0
225 0 36 31 35 31 0 227 c0 222 -1 229 -22 254 -13 14 -41 30 -63 36 -56 14
-392 12 -433 -3z"/>
</g>
</svg>
